<?xml version="1.0" standalone="no"?>
<!DOCTYPE svg PUBLIC "-//W3C//DTD SVG 1.1//EN" "http://www.w3.org/Graphics/SVG/1.1/DTD/svg11.dtd" >
<svg xmlns="http://www.w3.org/2000/svg">
<metadata>
<json>
<![CDATA[
{
	"fontFamily": "slds",
	"majorVersion": 1,
	"minorVersion": 0,
	"version": "Version 1.0",
	"fontId": "slds",
	"psName": "slds",
	"subFamily": "Regular",
	"fullName": "slds",
	"description": "Font generated by IcoMoon."
}
]]>
</json>
</metadata>
<defs>
<font id="slds" horiz-adv-x="1024">
<font-face units-per-em="1024" ascent="960" descent="-64" />
<missing-glyph horiz-adv-x="1024" />
<glyph unicode="&#x20;" horiz-adv-x="512" d="" />
<glyph unicode="&#xe900;" glyph-name="suitcase" data-tags="suitcase, briefcase" d="M896 32h-768c-35.328 0-64 28.672-64 64v288h128v-96h128v96h384v-96h128v96h128v-288c0-35.328-28.672-64-64-64zM736 320v128h64v-128h-64zM224 320v128h64v-128h-64zM832 480h-128v-64h-384v64h-128v-64h-128v224c0 35.328 28.672 64 64 64h768c35.328 0 64-28.672 64-64v-224h-128v64zM608 800.672h-192v-64.672h-64v31.328h32v96.672h256.672v-96h31.328v-32h-64v64.672z" />
<glyph unicode="&#xe901;" glyph-name="phone1" data-tags="phone, contact" d="M490.592 327.68c-0.832 0.576-97.088 162.4-97.408 164.48-19.904 43.488-35.968 87.968-2.496 107.712l-138.912 234.24c-36-26.912-137.824-172.96 52.768-503.936 200.768-348.8 391.84-334.304 430.144-310.688l-135.36 228.64c-32-18.816-58.944 12.192-108.736 79.552zM827.584 108.256l0.032 0.192c0 0-105.696 178.112-105.76 178.176-8.384 14.112-26.4 18.56-40.448 10.368l-64.768-38.304 135.744-229.312c0 0 64.768 38.112 64.736 38.24h0.128c14.88 8.832 18.304 27.072 10.336 40.64zM473.152 648.448v0.128c14.88 8.8 18.368 27.040 10.4 40.48l0.064 0.192c0 0-108.736 183.328-108.8 183.36-8.352 14.176-26.432 18.56-40.416 10.368l-64.768-38.304 138.752-234.368c0 0 64.736 38.048 64.768 38.144z" />
<glyph unicode="&#xe902;" glyph-name="align-center" data-tags="align-center" d="M725.333 501.333h-426.667c-17.673 0-32 14.327-32 32s14.327 32 32 32v0h426.667c17.673 0 32-14.327 32-32s-14.327-32-32-32v0zM853.333 672h-682.667c-17.673 0-32 14.327-32 32s14.327 32 32 32v0h682.667c17.673 0 32-14.327 32-32s-14.327-32-32-32v0zM853.333 330.667h-682.667c-17.673 0-32 14.327-32 32s14.327 32 32 32v0h682.667c17.673 0 32-14.327 32-32s-14.327-32-32-32v0zM725.333 160h-426.667c-17.673 0-32 14.327-32 32s14.327 32 32 32v0h426.667c17.673 0 32-14.327 32-32s-14.327-32-32-32v0z" />
<glyph unicode="&#xe903;" glyph-name="sale" data-tags="sale" d="M896-32h-768c-53.024 0-96 43.008-96 96v448c0 53.024 42.976 96 96 96h64l271.776 208.576c-1.216 4.96-2.048 10.080-2.048 15.424 0 35.328 28.672 64 64 64s63.968-28.672 63.968-64c0-11.488-3.264-22.144-8.608-31.488l250.912-192.512h64c52.992 0 96-42.976 96-96v-448c0-52.992-43.008-96-96-96zM546.272 173.344h128.992v24.256h-101.76v182.016h-27.264v-206.272zM361.696 173.344l22.592 62.496h86.656l23.744-62.496h31.104l-84.096 206.24h-29.568l-79.296-206.24h28.864zM170.944 355.392c-5.888-9.088-8.832-18.848-8.832-29.248 0-9.504 2.4-18.048 7.232-25.728s12.16-14.048 21.984-19.264c7.552-4.032 20.768-8.32 39.648-12.864s31.072-7.904 36.608-10.048c8.608-3.328 14.784-7.328 18.592-12.16s5.728-10.432 5.728-16.896c0-6.336-1.952-12.256-5.824-17.664s-9.792-9.664-17.76-12.768c-7.936-3.136-17.088-4.672-27.456-4.672-11.68 0-22.176 2.016-31.52 6.144-9.376 4.064-16.256 9.44-20.672 16.096s-7.296 15.168-8.512 25.504l-25.76-2.24c0.384-13.792 4.16-26.112 11.328-37.024 7.168-10.944 17.024-19.136 29.6-24.576 12.608-5.44 28.192-8.16 46.816-8.16 14.656 0 27.872 2.688 39.616 8.096 11.744 5.376 20.736 12.864 27.008 22.592 6.272 9.696 9.408 20 9.408 30.976 0 11.040-2.88 20.768-8.608 29.248-5.728 8.512-14.592 15.488-26.624 20.992-8.288 3.744-23.456 8.128-45.536 13.12-22.112 5.024-35.776 9.952-40.992 14.752-5.344 4.736-8 10.848-8 18.24 0 8.576 3.776 15.84 11.296 21.888s19.488 9.088 35.936 9.088c15.808 0 27.744-3.328 35.808-9.92 8.096-6.624 12.8-16.416 14.208-29.344l26.24 1.984c-0.48 12.096-3.84 22.912-10.080 32.448-6.272 9.536-15.232 16.768-26.88 21.696s-25.088 7.36-40.352 7.36c-13.856 0-26.432-2.336-37.76-7.040-11.392-4.672-20-11.52-25.888-20.608zM565.696 782.4c-11.008-8.864-24.768-14.4-39.968-14.4-21.184 0-39.808 10.4-51.456 26.272l-250.272-186.272h576l-234.304 174.4zM861.952 197.6h-126.496v70.24h113.984v24.256h-113.984v63.264h121.76v24.256h-148.992v-206.24h153.76v24.224zM426.048 358.080c3.328-11.296 8.192-25.6 14.624-42.976l21.728-57.024h-70.368l22.88 60.384c4.704 13.024 8.416 26.24 11.136 39.616z" />
<glyph unicode="&#xe904;" glyph-name="map1" data-tags="map, location, address" d="M639.52 62.4l225.056 102.848v668.352l-225.056-102.816v-668.384zM384.48 165.248l223.36-92.576v668.384l-223.36 92.544v-668.352zM127.392 730.784v-668.384l225.376 92.544v668.384l-225.376-92.544z" />
<glyph unicode="&#xe905;" glyph-name="archive" data-tags="archive" d="M418.24 793.536l-185.472 49.696c-17.056 4.576-34.592-5.568-39.168-22.624l-190.496-710.912c-4.576-17.088 5.568-34.624 22.656-39.232l185.44-49.696c17.056-4.576 34.624 5.568 39.2 22.624l190.496 710.944c4.544 17.056-5.568 34.624-22.656 39.2zM248.96 161.824c-13.728-51.232-66.336-81.6-117.568-67.872s-81.6 66.336-67.872 117.568 66.336 81.632 117.568 67.872c51.232-13.728 81.6-66.368 67.872-117.568zM285.728 298.976l-185.44 49.696 99.36 370.912 185.472-49.728-99.392-370.88zM606.016 224c-26.528 0-48-21.504-48-48s21.472-48 48-48c26.496 0 48 21.504 48 48s-21.504 48-48 48zM345.952 647.264l-123.68 33.12-8.256-30.912 123.648-33.12 8.288 30.912zM321.056 554.528l8.32 30.912-123.648 33.12-8.288-30.912 123.616-33.12zM168.16 231.104c-25.6 6.88-51.936-8.352-58.784-33.952-6.88-25.632 8.32-51.936 33.952-58.784 25.6-6.88 51.936 8.32 58.784 33.952 6.848 25.6-8.352 51.904-33.952 58.784zM958.016 672h-128v-32h128v32zM958.016 544h-128v-32h128v32zM958.016 608h-128v-32h128v32zM894.016 224c-26.528 0-48-21.504-48-48s21.472-48 48-48c26.496 0 48 21.504 48 48s-21.504 48-48 48zM990.016 832h-192c-17.696 0-32-14.304-32-32v-736c0-17.664 14.304-32 32-32h192c17.664 0 32 14.336 32 32v736c0 17.696-14.368 32-32 32zM894.016 80c-53.024 0-96 43.008-96 96 0 53.024 42.976 96 96 96 52.992 0 96-42.976 96-96 0-52.992-43.008-96-96-96zM990.016 320h-192v384h192v-384zM670.016 672h-128v-32h128v32zM670.016 544h-128v-32h128v32zM702.016 832h-192c-17.696 0-32-14.304-32-32v-736c0-17.664 14.304-32 32-32h192c17.664 0 32 14.336 32 32v736c0 17.696-14.368 32-32 32zM606.016 81.984c-53.024 0-96 43.008-96 96 0 53.024 42.976 96 96 96 52.992 0 96-42.976 96-96 0-52.992-43.008-96-96-96zM702.016 320h-192v384h192v-384zM670.016 608h-128v-32h128v32zM180.864 525.856l123.616-33.12 8.32 30.912-123.648 33.12-8.288-30.912z" />
<glyph unicode="&#xe906;" glyph-name="box1" data-tags="box, package" d="M64.16 229.6l417.248-197.408v441.6l-417.248 176.64v-420.832zM192.192 486.688l160.832-74.784-0.928-58.944-160.8 74.752 0.896 58.976zM512 473.792v-441.6l415.808 197.408v420.832l-415.808-176.64zM494.496 863.808l-427.616-184.224 428-182.784 432.448 183.2-432.832 183.808z" />
<glyph unicode="&#xe907;" glyph-name="moneybag" data-tags="money bag, sack dollar, bag" d="M448.544 662.336h125.888v47.232h-125.888v-47.232zM573.504 646.624h-124.96c0 0-205.6-202.656-205.6-401.344 0-210.528 215.424-227.264 215.424-227.264s64.256-10.656 104.224 0c0 0 218.432 25.6 218.432 226.24 0.032 200.704-207.52 402.368-207.52 402.368zM582.752 220.064c-5.056-10.24-11.872-18.816-20.576-25.664-8.672-6.88-18.816-12.032-30.368-15.488-1.472-0.448-3.072-0.608-4.576-0.992v-34.944h-31.456v30.848c-0.384-0.032-0.768-0.096-1.152-0.096-8.928 0-17.216 0.704-24.896 2.144-7.648 1.472-14.4 3.232-20.288 5.248-5.888 2.048-10.784 4.192-14.688 6.432-3.936 2.24-6.784 4.224-8.512 5.952-1.76 1.728-2.976 4.224-3.712 7.488-0.704 3.296-1.088 7.968-1.088 14.112 0 4.128 0.128 7.584 0.416 10.4s0.672 5.056 1.312 6.816c0.608 1.76 1.376 2.976 2.368 3.712 0.992 0.704 2.176 1.088 3.488 1.088 1.888 0 4.512-1.088 7.904-3.296s7.744-4.64 13.088-7.296c5.344-2.688 11.68-5.088 19.104-7.328 7.392-2.176 15.968-3.296 25.696-3.296 6.4 0 12.128 0.768 17.184 2.304s9.376 3.68 12.896 6.496c3.552 2.816 6.24 6.272 8.096 10.4 1.888 4.16 2.816 8.736 2.816 13.856 0 5.856-1.632 10.88-4.8 15.104-3.2 4.192-7.392 7.904-12.512 11.2-5.12 3.264-10.944 6.304-17.472 9.184s-13.28 5.92-20.192 9.088c-6.944 3.2-13.664 6.816-20.192 10.912-6.528 4.064-12.384 8.896-17.504 14.56s-9.28 12.384-12.512 20.096c-3.2 7.712-4.768 16.992-4.768 27.776 0 12.416 2.304 23.296 6.88 32.672 4.608 9.376 10.816 17.184 18.592 23.36 7.808 6.176 16.992 10.816 27.584 13.888 5.44 1.568 11.072 2.72 16.832 3.456v33.12h31.456v-33.088c1.28-0.16 2.528-0.096 3.776-0.288 6.112-0.928 11.872-2.176 17.184-3.776 5.312-1.568 10.048-3.36 14.176-5.344s6.88-3.616 8.192-4.96c1.376-1.312 2.24-2.432 2.752-3.36 0.448-0.928 0.8-2.176 1.184-3.712 0.32-1.536 0.576-3.456 0.672-5.824 0.128-2.304 0.192-5.216 0.192-8.672 0-3.872-0.128-7.168-0.32-9.856-0.192-2.656-0.512-4.864-0.992-6.592-0.448-1.76-1.12-3.008-1.984-3.808s-1.984-1.184-3.488-1.184c-1.44 0-3.808 0.896-7.008 2.752-3.2 1.888-7.136 3.872-11.744 6.048-4.672 2.176-10.048 4.16-16.192 5.984-6.176 1.792-12.896 2.656-20.192 2.656-5.76 0-10.752-0.672-15.008-2.080-4.288-1.376-7.84-3.328-10.72-5.76-2.848-2.464-4.992-5.44-6.368-8.864-1.408-3.424-2.080-7.104-2.080-10.944 0-5.76 1.568-10.72 4.672-14.912s7.328-7.936 12.608-11.2c5.248-3.296 11.232-6.336 17.92-9.184 6.656-2.88 13.44-5.92 20.384-9.088 6.944-3.232 13.696-6.848 20.384-10.912s12.64-8.928 17.824-14.592 9.376-12.32 12.576-19.968c3.2-7.68 4.8-16.672 4.8-27.104-0.032-13.504-2.592-25.408-7.648-35.68zM572.512 725.312l63.936 157.408c0 0-40.32-33.472-63.936-33.472s-61.024 32.48-61.024 32.48-40.32-32.48-63.936-32.48c-23.584 0-61.984 31.488-61.984 31.488l64.928-155.424h122.016z" />
<glyph unicode="&#xe908;" glyph-name="list1" data-tags="list, menu" d="M256 576h128v128h-128v-128zM256 384h128v128h-128v-128zM256 192h128v128h-128v-128zM448 704v-128h320v128h-320zM448 384h320v128h-320v-128zM448 192h320v128h-320v-128z" />
<glyph unicode="&#xe909;" glyph-name="comments1" data-tags="comments, bubbles, chat, talk" horiz-adv-x="1100" d="M804.224 538.72c0 165.28-180.064 299.264-402.112 299.264-222.080 0-402.112-133.984-402.112-299.264 0-99.328 65.024-187.328 165.12-241.76-0.288-0.864-79.744-145.44-79.744-145.44s242.624 92.544 243.296 92.928c23.808-3.296 48.352-4.96 73.44-4.96 222.048 0 402.112 133.984 402.112 299.232zM1100.32 445.216c0 165.248-169.504 298.048-352.992 299.232 263.040-262.016-46.752-541.184-299.232-541.184 0 0 28.064-57.28 250.112-57.28 25.056 0 49.632 1.728 73.44 4.992 0.672-0.448 243.328-92.928 243.328-92.928s-79.488 144.544-79.744 145.408c100.064 54.432 165.088 142.464 165.088 241.76z" />
<glyph unicode="&#xe90a;" glyph-name="pencil1" data-tags="pencil, write, writing, blog, edit" d="M178.624 318.272l476.352 476.352 203.808-203.808-476.352-476.352-203.808 203.808zM676.896 679.744l-22.336 22.304-383.392-383.36 22.336-22.336 383.392 383.392zM721.568 635.072l-22.336 22.336-383.392-383.424 22.304-22.304 383.424 383.392zM766.24 590.4l-22.336 22.336-383.392-383.392 22.336-22.336 383.392 383.392zM746.208 884.608c24.992 25.056 65.44 25.216 90.24 0.416l112.384-112.384c24.8-24.8 24.64-65.216-0.384-90.24l-69.44-69.44-202.24 202.24 69.44 69.408zM162.944 291.744l192.96-192.96-169.088-60.064-83.936 83.936 60.064 169.088zM154.784 28.256l-98.112-35.744 35.744 98.112 62.368-62.368z" />
<glyph unicode="&#xe90b;" glyph-name="dollar1" data-tags="dollar, bill, money, stack" horiz-adv-x="1216" d="M1152.064 223.68l1.824 546.848-993.6-0.608-0.032 62.72h1055.744v-608.992l-63.936 0.032zM1119.84 127.456l-63.904 0.064 1.824 546.848-993.6-0.64-0.032 62.72h1055.744v-608.992zM1025.696 63.36h-1025.696v576.96h1025.696v-576.96zM961.568 578.208h-897.472v-450.752h897.44v450.752zM865.44 175.52c0-5.664 1.408-10.944 3.232-16h-355.84c88.512 0 160.288 86.080 160.288 192.32s-71.776 192.32-160.288 192.32h355.808c-1.824-5.056-3.232-10.336-3.232-16.032 0-26.56 21.504-48.064 48.064-48.064 5.696 0 10.976 1.408 16.032 3.232v-262.88c-5.056 1.792-10.336 3.232-16.032 3.232-26.528-0.032-48.032-21.568-48.032-48.128zM801.312 418.592c-26.56 0-48.064-28.672-48.064-64.096s21.504-64.096 48.064-64.096 48.064 28.672 48.064 64.096-21.504 64.096-48.064 64.096zM579.936 467.392c0.48-0.928 0.864-2.176 1.184-3.712 0.352-1.536 0.576-3.488 0.672-5.824 0.16-2.336 0.224-5.248 0.224-8.736 0-3.872-0.096-7.168-0.288-9.824-0.224-2.688-0.576-4.896-0.992-6.624-0.512-1.76-1.152-3.040-1.984-3.808-0.864-0.8-2.048-1.216-3.52-1.216s-3.776 0.928-7.008 2.784c-3.232 1.888-7.168 3.872-11.808 6.048s-10.080 4.192-16.224 5.984-12.864 2.688-20.224 2.688c-5.76 0-10.752-0.672-15.008-2.080-4.288-1.408-7.872-3.328-10.72-5.792-2.88-2.464-5.024-5.44-6.4-8.864-1.408-3.456-2.112-7.136-2.112-10.976 0-5.76 1.568-10.72 4.704-14.944 3.136-4.192 7.328-7.936 12.64-11.2 5.28-3.296 11.264-6.336 17.92-9.216s13.472-5.92 20.416-9.088c6.944-3.232 13.76-6.848 20.448-10.944 6.688-4.064 12.64-8.928 17.824-14.592 5.216-5.696 9.44-12.352 12.64-20.032s4.8-16.704 4.8-27.136c0-13.6-2.56-25.568-7.616-35.808-5.056-10.272-11.936-18.88-20.64-25.76s-18.816-12.032-30.432-15.488c-1.472-0.448-3.072-0.64-4.576-0.992v-35.008h-31.52v30.88c-0.416 0-0.768-0.096-1.184-0.096-8.928 0-17.248 0.736-24.928 2.176-7.68 1.472-14.464 3.232-20.32 5.248-5.888 2.048-10.784 4.224-14.72 6.464-3.968 2.24-6.784 4.224-8.512 5.952s-2.976 4.224-3.712 7.488-1.12 8-1.12 14.144c0 4.128 0.128 7.616 0.416 10.4 0.256 2.816 0.704 5.088 1.312 6.848 0.608 1.728 1.408 2.976 2.4 3.712 0.992 0.704 2.176 1.088 3.488 1.088 1.888 0 4.512-1.088 7.936-3.328 3.392-2.176 7.776-4.64 13.12-7.296s11.712-5.088 19.136-7.296c7.392-2.208 16-3.328 25.728-3.328 6.4 0 12.16 0.768 17.216 2.304 5.088 1.536 9.376 3.712 12.928 6.496 3.52 2.816 6.208 6.304 8.096 10.432 1.888 4.16 2.816 8.768 2.816 13.856 0 5.888-1.632 10.944-4.8 15.136-3.2 4.224-7.36 7.936-12.512 11.232-5.152 3.264-10.976 6.336-17.504 9.184-6.56 2.88-13.28 5.92-20.224 9.12s-13.696 6.848-20.224 10.912c-6.528 4.064-12.384 8.928-17.504 14.624-5.12 5.664-9.312 12.384-12.512 20.096-3.2 7.744-4.8 17.024-4.8 27.84 0 12.416 2.304 23.328 6.912 32.704 4.608 9.408 10.816 17.216 18.624 23.424 7.808 6.176 17.024 10.848 27.616 13.92 5.44 1.568 11.072 2.72 16.864 3.488v33.12h31.52v-33.12c1.248-0.16 2.496-0.096 3.744-0.288 6.144-0.928 11.904-2.176 17.248-3.776 5.312-1.6 10.048-3.36 14.176-5.376 4.16-1.984 6.88-3.616 8.256-4.96 1.248-1.184 2.144-2.304 2.624-3.264zM352.576 351.84c0-106.208 71.744-192.32 160.256-192.32h-355.808c1.792 5.056 3.232 10.336 3.232 16 0 26.56-21.536 48.096-48.064 48.096-5.696 0-10.976-1.44-16.032-3.232v262.88c5.056-1.824 10.336-3.232 16.032-3.232 26.56 0 48.064 21.504 48.064 48.064 0 5.696-1.44 10.976-3.232 16.032h355.808c-88.512 0.032-160.256-86.080-160.256-192.288zM224.352 418.592c-26.56 0-48.064-28.672-48.064-64.096s21.536-64.096 48.064-64.096c26.56 0 48.064 28.672 48.064 64.096s-21.504 64.096-48.064 64.096z" />
<glyph unicode="&#xe90c;" glyph-name="coins" data-tags="coins, money" d="M912 224h-391.872c11.488 19.808 20.288 41.28 26.112 64h365.76c17.696 0 32-14.304 32-32 0-17.664-14.304-32-32-32zM912 320h-359.552c1.312 10.496 2.208 21.152 2.208 32 0 10.88-0.896 21.504-2.208 32h359.552c17.696 0 32-14.304 32-32 0-17.664-14.304-32-32-32zM912 416h-365.76c-5.856 22.72-14.624 44.192-26.112 64h391.872c17.696 0 32-14.304 32-32 0-17.664-14.304-32-32-32zM912 512h-413.696c-20.8 25.952-46.496 47.776-75.808 64h489.504c17.696 0 32-14.304 32-32 0-17.664-14.304-32-32-32zM912 608h-512c-17.696 0-32 14.336-32 32 0 17.696 14.304 32 32 32h512c17.696 0 32-14.304 32-32 0-17.664-14.304-32-32-32zM912 704h-512c-17.696 0-32 14.336-32 32 0 17.696 14.304 32 32 32h512c17.696 0 32-14.304 32-32 0-17.664-14.304-32-32-32zM528 352c0-123.712-100.32-224-224-224-123.712 0-224 100.288-224 224s100.288 224 224 224c123.68 0 224-100.288 224-224zM383.296 327.648c-3.232 7.648-7.392 14.304-12.608 19.968s-11.136 10.528-17.792 14.592c-6.656 4.064-13.44 7.68-20.384 10.912-6.944 3.2-13.728 6.208-20.384 9.088-6.656 2.848-12.64 5.92-17.888 9.184-5.28 3.264-9.472 7.008-12.608 11.2s-4.704 9.152-4.704 14.912c0 3.84 0.704 7.488 2.080 10.944 1.408 3.424 3.52 6.4 6.4 8.864 2.848 2.432 6.432 4.384 10.688 5.76 4.256 1.408 9.28 2.080 15.008 2.080 7.328 0 14.048-0.864 20.192-2.656 6.112-1.824 11.52-3.776 16.192-5.984 4.672-2.176 8.608-4.192 11.808-6.048s5.536-2.752 7.008-2.752 2.624 0.384 3.488 1.184c0.832 0.8 1.536 2.048 1.984 3.808 0.48 1.728 0.768 3.936 0.992 6.592 0.192 2.688 0.288 5.984 0.288 9.856 0 3.456-0.064 6.368-0.192 8.672-0.128 2.336-0.384 4.288-0.672 5.824-0.352 1.536-0.736 2.784-1.184 3.712-0.512 0.928-1.376 2.048-2.72 3.36-1.344 1.344-4.064 3.008-8.192 4.96-4.128 1.984-8.864 3.776-14.176 5.344-5.344 1.6-11.072 2.848-17.184 3.776-1.248 0.192-2.528 0.128-3.776 0.288v33.088h-31.488v-33.088c-5.792-0.768-11.392-1.92-16.832-3.488-10.592-3.072-19.776-7.68-27.584-13.888s-14.016-14.016-18.592-23.36c-4.608-9.408-6.88-20.288-6.88-32.672 0-10.784 1.6-20.064 4.768-27.776 3.2-7.712 7.36-14.432 12.512-20.096s10.944-10.496 17.472-14.56c6.528-4.096 13.28-7.712 20.192-10.912 6.944-3.2 13.664-6.208 20.192-9.088s12.352-5.952 17.472-9.184c5.152-3.296 9.312-7.008 12.512-11.2 3.2-4.224 4.8-9.248 4.8-15.104 0-5.088-0.928-9.696-2.784-13.856-1.888-4.128-4.576-7.584-8.096-10.4s-7.808-4.96-12.864-6.496c-5.088-1.536-10.784-2.304-17.216-2.304-9.728 0-18.304 1.088-25.696 3.296s-13.76 4.64-19.104 7.328c-5.344 2.656-9.696 5.056-13.088 7.296-3.392 2.176-6.016 3.296-7.904 3.296-1.344 0-2.528-0.384-3.488-1.088-1.024-0.736-1.824-1.984-2.4-3.712-0.608-1.76-1.024-4-1.312-6.816s-0.416-6.272-0.416-10.4c0-6.144 0.384-10.848 1.088-14.112 0.736-3.296 1.984-5.792 3.712-7.488 1.728-1.728 4.544-3.68 8.48-5.952s8.832-4.384 14.688-6.432c5.856-2.016 12.64-3.776 20.288-5.248 7.648-1.44 15.968-2.144 24.896-2.144 0.384 0 0.736 0.064 1.152 0.064v-30.816h31.456v34.944c1.504 0.384 3.104 0.576 4.576 0.992 11.584 3.456 21.728 8.64 30.4 15.488s15.52 15.392 20.608 25.664c5.056 10.272 7.552 22.176 7.552 35.776 0.032 10.336-1.568 19.328-4.736 27.008zM498.304 192h413.696c17.696 0 32-14.304 32-32 0-17.664-14.304-32-32-32h-489.504c29.312 16.224 55.008 38.048 75.808 64z" />
<glyph unicode="&#xe90d;" glyph-name="addressbook" data-tags="address book, phone book, contacts" d="M864 385.984v96h64v-96h-64zM864 608h64v-96h-64v96zM864 736h64v-96h-64v96zM768 32h-576c-35.328 0-64 28.672-64 64h16c26.496 0 48 21.504 48 48s-21.504 48-48 48h-16v32h16c26.496 0 48 21.504 48 48s-21.504 48-48 48h-16v32h16c26.496 0 48 21.504 48 48s-21.504 48-48 48h-16v32h16c26.496 0 48 21.504 48 48s-21.504 48-48 48h-16v32h16c26.496 0 48 21.504 48 48s-21.504 48-48 48h-16v96c0 35.328 28.672 64 64 64h576c23.616 0 44.032-12.928 55.136-32h-631.136c-17.696 0-32-14.304-32-32 0-17.664 14.304-32 32-32h640v-672c0-35.328-28.672-64-64-64zM496 654.016c-38.656 0-70.016-41.184-70.016-92s31.328-92 70.016-92 70.016 41.184 70.016 92-31.36 92-70.016 92zM607.68 425.984c-17.248 11.488-66.912 19.136-66.912 19.136s-32.192-34.4-45.856-34.4c-13.696 0-45.888 34.4-45.888 34.4s-49.664-7.616-66.88-19.136c-17.248-11.456-24.864-72.352-24.864-72.352h275.68c0.032 0.032-5.024 58.88-25.28 72.352zM160 656c0-8.832-7.168-16-16-16h-32c-8.832 0-16 7.168-16 16s7.168 16 16 16h32c8.832 0 16-7.168 16-16zM112 544h32c8.832 0 16-7.168 16-16s-7.168-16-16-16h-32c-8.832 0-16 7.168-16 16s7.168 16 16 16zM112 416h32c8.832 0 16-7.168 16-16s-7.168-16-16-16h-32c-8.832 0-16 7.168-16 16s7.168 16 16 16zM112 288h32c8.832 0 16-7.168 16-16s-7.168-16-16-16h-32c-8.832 0-16 7.168-16 16s7.168 16 16 16zM112 160h32c8.832 0 16-7.168 16-16s-7.168-16-16-16h-32c-8.832 0-16 7.168-16 16s7.168 16 16 16z" />
<glyph unicode="&#xe90e;" glyph-name="addressbook1" data-tags="address book, phone book, contacts" d="M192 832c-17.696 0-32-14.304-32-32 0-17.664 14.304-32 32-32h640v-672c0-35.328-28.672-64-64-64h-576c-35.328 0-64 28.672-64 64h16c26.496 0 48 21.504 48 48s-21.504 48-48 48h-16v32h16c26.496 0 48 21.504 48 48s-21.504 48-48 48h-16v32h16c26.496 0 48 21.504 48 48s-21.504 48-48 48h-16v32h16c26.496 0 48 21.504 48 48s-21.504 48-48 48h-16v32h16c26.496 0 48 21.504 48 48s-21.504 48-48 48h-16v96c0 35.328 28.672 64 64 64h576c23.616 0 44.032-12.928 55.136-32h-631.136zM335.68 335.2c7.648-17.056 19.072-32.16 34.176-45.28 15.136-13.088 33.44-22.912 54.912-29.44 21.504-6.528 44.928-9.824 70.368-9.824 27.616 0 51.232 3.648 70.816 10.912 19.584 7.296 36.512 17.152 50.72 29.632 14.176 12.48 24.224 24.704 30.048 36.704h-31.008c-10.080-14.368-25.28-26.592-45.568-36.672s-45.44-15.104-75.424-15.104c-28.096 0-53.664 4.832-76.736 14.528s-40.736 24.672-52.928 44.896c-12.224 20.288-18.304 44.448-18.304 72.512 0 26.816 6.080 51.904 18.272 75.328s29.376 41.408 51.52 53.952c22.112 12.576 46.624 18.816 73.408 18.816 23.456 0 44.896-4.96 64.32-14.944s33.984-23.296 43.776-39.872c9.792-16.64 14.688-34.496 14.688-53.632 0-16.384-3.808-32.288-11.424-47.68-7.648-15.424-17.984-27.712-31.104-36.864-9.888-7.008-17.856-10.496-23.904-10.496-3.328 0-6.176 1.12-8.544 3.36-2.336 2.208-3.52 4.896-3.52 8 0 1.728 1.728 10.592 5.152 26.656l24.832 115.456h-30.752l-5.952-26.624c-6.528 10.656-14.304 18.592-23.36 23.808-9.024 5.216-18.56 7.808-28.512 7.808-13.056 0-26.528-4.576-40.416-13.76-13.856-9.184-25.44-22.912-34.784-41.184-9.344-18.304-14.016-36.576-14.016-54.816 0-14.784 3.008-28.384 9.024-40.768s13.856-21.568 23.456-27.488c9.632-5.984 19.52-8.928 29.728-8.928 9.28 0 18.528 2.592 27.744 7.808 9.248 5.216 17.6 12.128 25.024 20.704 0.672-7.008 1.792-11.936 3.296-14.848 2.272-4.48 5.856-7.904 10.72-10.336 4.864-2.4 11.296-3.584 19.2-3.584 24.768 0 47.584 11.552 68.48 34.688 23.392 25.792 35.104 55.296 35.104 88.512 0 23.264-5.568 44.8-16.672 64.64-13.024 23.040-30.88 40.352-53.504 51.968s-48.128 17.44-76.576 17.44c-36.672 0-67.808-8.224-93.536-24.704s-45.568-40.256-59.52-71.296c-11.456-25.312-17.184-51.936-17.184-79.872 0.032-25.12 4.832-48.512 14.464-70.112zM495.648 372.576c-6.464-7.552-13.248-13.28-20.352-17.12-7.136-3.84-13.888-5.792-20.288-5.792-9.632 0-18.144 4.384-25.632 13.088-7.424 8.704-11.168 20.928-11.168 36.672 0 9.888 1.856 20.704 5.504 32.576 3.648 11.808 8.544 21.856 14.592 30.112 6.080 8.256 12.352 14.24 18.816 17.984s13.376 5.6 20.704 5.6c11.136 0 20.544-4.288 28.288-12.896 7.712-8.608 11.584-20.704 11.584-36.32 0-11.712-2.048-23.392-6.176-35.040-4.096-11.68-9.408-21.312-15.872-28.864zM160 656c0-8.832-7.168-16-16-16h-32c-8.832 0-16 7.168-16 16s7.168 16 16 16h32c8.832 0 16-7.168 16-16zM112 544h32c8.832 0 16-7.168 16-16s-7.168-16-16-16h-32c-8.832 0-16 7.168-16 16s7.168 16 16 16zM112 416h32c8.832 0 16-7.168 16-16s-7.168-16-16-16h-32c-8.832 0-16 7.168-16 16s7.168 16 16 16zM112 288h32c8.832 0 16-7.168 16-16s-7.168-16-16-16h-32c-8.832 0-16 7.168-16 16s7.168 16 16 16zM112 160h32c8.832 0 16-7.168 16-16s-7.168-16-16-16h-32c-8.832 0-16 7.168-16 16s7.168 16 16 16zM928 641.984h-64v96h64v-96zM928 512h-64v96h64v-96zM928 385.984h-64v96h64v-96z" />
<glyph unicode="&#xe90f;" glyph-name="safe" data-tags="safe, money" d="M864 32l-63.968 1.984v-65.984h-96v64h-382.016l-1.984-64h-96v62.016l-64.032 1.984c-35.328 0-64 28.672-64 64v768c0 35.328 28.672 64 64 64h704c35.328 0 64-28.672 64-64v-768c0-35.328-28.672-64-64-64zM832 832h-640v-126.656l-31.328 0.64v-98.656h31.328v-253.344h-32v-97.984h32v-128h640v704zM800 160h-576v96h32v97.984h-32v254.016h32l0.672 97.344h-32.672v94.656h576v-640zM465.984 622.016c-70.688 0-128-57.312-128-128s57.312-128 128-128c70.72 0 128 57.312 128 128s-57.28 128-128 128zM752 591.424c0 17.696-14.304 32-32 32-17.664 0-32-14.304-32-32 0-11.712 6.624-21.536 16-27.104v-169.248c-9.376-5.568-16-15.36-16-27.104 0-17.664 14.336-32 32-32 17.696 0 32 14.336 32 32 0 12.608-7.424 23.232-17.984 28.448v166.56c10.56 5.248 17.984 15.872 17.984 28.448zM464 440c-26.496 0-48 21.504-48 48 0 26.528 21.504 48 48 48 26.528 0 48-21.472 48-48 0-26.496-21.472-48-48-48z" />
<glyph unicode="&#xe910;" glyph-name="book3" data-tags="book, reading" d="M480 132v628c0 0-86.016 72-208 72s-208-64-208-64v-636c0 0 86.016 62.016 208 62.016s208-62.016 208-62.016zM928 132v628c0 0-86.016 72-208 72s-208-64-208-64v-636c0 0 86.016 62.016 208 62.016s208-62.016 208-62.016zM992 704h-32v-608h-384v-32h-160v32h-384v608h-32v-640h384v-32h225.984l-1.984 32h384v640z" />
<glyph unicode="&#xe911;" glyph-name="cabinet" data-tags="cabinet, drawer, storage" d="M160-32v800l133.344 128h405.344l133.312-128v-800h-672zM192 0h608v736h-608v-736zM224 352h544v-320h-544v320zM416 224v-32h160v96h-32v-64h-96v64h-32v-64zM224 704h544v-320h-544v320zM416 544h160v96h-32v-64h-96v64h-32v-96z" />
<glyph unicode="&#xe912;" glyph-name="calendar1" data-tags="calendar, date, schedule" d="M896 0h-768c-35.328 0-64 28.672-64 64v672c0 35.328 28.672 64 64 64h64v-32c0-53.024 42.976-96 96-96s96 42.976 96 96v32h256v-32c0-53.024 43.008-96 96-96s96 42.976 96 96v32h64c35.328 0 64-28.672 64-64v-672c0-35.328-28.672-64-64-64zM896 576h-768v-512h768v512zM418.208 325.472c6.304 10.048 9.472 20.672 9.472 31.776 0 24.736-13.312 37.12-39.936 37.12-23.136 0-45.248-9.184-66.368-27.552v52.128c23.36 15.136 49.76 22.688 79.136 22.688 27.488 0 48.96-6.912 64.416-20.704s23.168-32.48 23.168-55.968c0-31.36-18.816-63.808-56.448-97.312l-55.328-49.12v-1.12h109.12v-49.12h-176.992v46.112l77.056 73.696c15.488 14.848 26.4 27.296 32.704 37.376zM634.784 218.688c8.448 6.496 12.672 15.552 12.672 27.2 0 12-5.216 21.248-15.648 27.744s-24.768 9.76-43.040 9.76h-24.192v45.376h22.304c35.008 0 52.512 11.616 52.512 34.88 0 21.888-13.44 32.8-40.32 32.8-17.984 0-35.488-5.824-52.512-17.44v48.384c18.88 9.504 40.864 14.24 65.984 14.24 27.488 0 48.896-6.176 64.224-18.56s22.976-28.448 22.976-48.192c0-35.136-17.824-57.12-53.44-65.984v-0.928c19.008-2.368 33.984-9.28 44.992-20.704s16.512-25.472 16.512-42.080c0-25.12-9.184-44.992-27.552-59.616s-43.744-21.952-76.128-21.952c-27.744 0-50.304 4.512-67.68 13.504v51.552c17.984-13.12 39.008-19.68 63.008-19.68 15.104-0.064 26.88 3.2 35.328 9.696zM735.008 704c-34.816 0-63.008 28.192-63.008 63.008v65.984c0 34.816 28.192 63.008 63.008 63.008s63.008-28.192 63.008-63.008v-65.984c0-34.816-28.192-63.008-63.008-63.008zM287.008 704c-34.816 0-63.008 28.192-63.008 63.008v65.984c0 34.816 28.192 63.008 63.008 63.008s63.008-28.192 63.008-63.008v-65.984c0-34.816-28.224-63.008-63.008-63.008z" />
<glyph unicode="&#xe913;" glyph-name="monitor" data-tags="monitor, pc, desktop, screen" d="M544 161.984h-96v-49.984l-96-16v-32h286.016v30.016l-94.016 17.984v49.984zM864 832h-736c-35.36 0-64-28.64-64-64v-448c0-35.328 28.64-64 64-64h736c35.36 0 64 28.672 64 64v448c0 35.36-28.64 64-64 64zM492 304c-17.664 0-32 14.336-32 32 0 17.696 14.336 32 32 32 17.696 0 32-14.304 32-32 0-17.664-14.336-32-32-32zM864 416h-736v352h736v-352z" />
<glyph unicode="&#xe914;" glyph-name="sitemap1" data-tags="site map, tree, map" d="M884.364-64h-139.636c-25.74 0-46.545 20.806-46.545 46.545v93.091c0 25.74 20.806 46.545 46.545 46.545h93.091v279.273h-325.818v-279.273h46.545c25.693 0 46.545-20.806 46.545-46.545v-93.091c0-25.74-20.852-46.545-46.545-46.545h-139.636c-25.74 0-46.545 20.806-46.545 46.545v93.091c0 25.74 20.806 46.545 46.545 46.545h46.545v279.273h-325.818v-279.273h93.091c25.693 0 46.545-20.806 46.545-46.545v-93.091c0-25.74-20.852-46.545-46.545-46.545h-139.636c-25.74 0-46.545 20.806-46.545 46.545v93.091c0 25.74 20.806 46.545 46.545 46.545v325.818h372.364v325.818h-46.545c-25.74 0-46.545 20.852-46.545 46.545v93.091c0 25.693 20.806 46.545 46.545 46.545h139.636c25.693 0 46.545-20.852 46.545-46.545v-93.091c0-25.693-20.852-46.545-46.545-46.545h-46.545v-325.818h372.364v-325.818c25.693 0 46.545-20.806 46.545-46.545v-93.091c0-25.74-20.852-46.545-46.545-46.545z" />
<glyph unicode="&#xe915;" glyph-name="sitemap2" data-tags="site map, tree, map" d="M902.011-88.437h-146.279c-26.907 0-48.776 21.771-48.776 48.727v97.552c0 26.859 21.868 48.727 48.776 48.727h97.503v243.83h-341.333v-243.83h48.727c26.956 0 48.776-21.868 48.776-48.727v-97.552c0-26.956-21.819-48.727-48.776-48.727h-146.279c-26.907 0-48.727 21.771-48.727 48.727v97.552c0 26.859 21.819 48.727 48.727 48.727h48.825v243.83h-341.382v-243.83h97.503c26.956 0 48.776-21.868 48.776-48.727v-97.552c0-26.956-21.819-48.727-48.776-48.727h-146.23c-26.956 0-48.776 21.771-48.776 48.727v97.552c0 26.859 21.819 48.727 48.776 48.727v292.557h390.109v195.054h-146.279c-26.956 0-48.776 21.819-48.776 48.776v243.83c0 26.907 21.819 48.776 48.776 48.776h341.333c26.956 0 48.727-21.819 48.727-48.776v-243.781c0-26.907-21.771-48.776-48.727-48.776h-146.279v-195.054h390.109v-292.557c26.907 0 48.776-21.868 48.776-48.727v-97.552c-0.049-27.005-21.966-48.776-48.825-48.776zM73.066 57.842v-97.552h146.23v97.552h-146.23zM658.181 642.957v243.83h-341.333v-243.781h341.333zM414.35 57.842v-97.552h146.279v97.552h-146.279zM902.011 57.842h-146.279v-97.552h146.279v97.552z" />
<glyph unicode="&#xe916;" glyph-name="cloud3" data-tags="cloud, weather" horiz-adv-x="1120" d="M891.936 64c0 0 176.64-0.192 201.44 172.64 11.808 188.992-170.752 226.24-170.752 226.24s20.768 279.776-235.552 311.68c-219.68 22.432-286.528-181.728-286.528-181.728s-66.176 63.616-155.936 11.648c-80.352-49.6-66.144-140.416-66.144-140.416s-178.464-34.688-178.464-216.576c4-181.664 193.824-183.488 193.824-183.488" />
<glyph unicode="&#xe917;" glyph-name="upload1" data-tags="upload, cloud" horiz-adv-x="1120" d="M941.632 462.88c0 0 20.768 279.776-235.552 311.68-219.68 22.432-286.56-181.728-286.56-181.728s-66.144 63.616-155.904 11.648c-80.352-49.6-66.144-140.416-66.144-140.416s-178.432-34.688-178.432-216.576c3.968-181.664 193.728-183.488 193.728-183.488h299.232v192h-96l160 160 160-160h-96v-192h270.944c0 0 176.64-0.192 201.44 172.64 11.808 188.992-170.752 226.24-170.752 226.24z" />
<glyph unicode="&#xe918;" glyph-name="chart" data-tags="chart, pie, graph" d="M479.68 418.72c0 0 1.312 416.288 0.32 416.288-216.928 0-384-189.088-384-409.984s179.104-393.984 400-393.984c220.864 0 400 165.088 400 385.984 0 1.856-416.32 1.696-416.32 1.696zM928 451.008c0 220.928-197.088 414.016-417.984 414.016 3.072 0 0-414.016 0-414.016s417.984-1.216 417.984 0z" />
<glyph unicode="&#xe919;" glyph-name="chart1" data-tags="chart, pie, graph" d="M543.936 481.856c0 0 3.072 383.552 0 383.552 220.672 0 383.552-162.88 383.552-383.552 0-1.216-383.552 0-383.552 0zM895.552 403.136c0-229.472-186.048-415.52-415.52-415.52-229.504 0-415.52 186.048-415.52 415.52 0 229.504 186.016 415.52 415.52 415.52 10.784 0 21.376-0.768 31.968-1.6v-367.168h381.056c1.6-14.72 2.496-31.616 2.496-46.752zM861.6 415.936h-381.568v370.752c-211.84 0-383.552-171.744-383.552-383.584s171.712-383.52 383.552-383.52 383.552 171.68 383.552 383.52c0 41.28-1.984 12.832-1.984 12.832z" />
<glyph unicode="&#xe91a;" glyph-name="chart2" data-tags="chart, bars, graph" d="M127.584 832h-31.584v-768h832v30.816l-799.872 1.6-0.544 735.584zM352 800c0 17.696-14.336 32-32 32h-96c-17.696 0-32-14.304-32-32v-640h160v640zM544 608c0 17.696-14.336 32-32 32h-96c-17.696 0-32-14.304-32-32v-448h160v448zM736 416c0 17.696-14.336 32-32 32h-96c-17.696 0-32-14.304-32-32v-256h160v256zM896 256h-96c-17.696 0-32-14.304-32-32v-64h160v64c0 17.696-14.336 32-32 32z" />
<glyph unicode="&#xe91b;" glyph-name="chart3" data-tags="chart, bars, graph" d="M127.584 832h-31.584v-768h832v30.816l-799.872 1.6-0.544 735.584zM544 800c0 17.696-14.336 32-32 32h-96c-17.696 0-32-14.304-32-32v-640h160v640zM352 608c0 17.664-14.336 32-32 32h-96c-17.696 0-32-14.336-32-32v-448h160v448zM736 416c0 17.696-14.336 32-32 32h-96c-17.696 0-32-14.304-32-32v-256h160v256zM896 256h-96c-17.696 0-32-14.304-32-32v-64h160v64c0 17.696-14.336 32-32 32z" />
<glyph unicode="&#xe91c;" glyph-name="chart4" data-tags="chart, bars, graph" d="M864 287.008h-640v-160h640c17.664 0 32 14.304 32 32v96c0 17.664-14.336 32-32 32zM704 351.008v96c0 17.664-14.336 32-32 32h-448v-160h448c17.664 0 32 14.304 32 32zM512 543.008v96c0 17.664-14.336 32-32 32h-256v-160h256c17.664 0 32 14.336 32 32zM320 735.008v96c0 17.696-14.336 32-32 32h-64v-160h64c17.664 0 32 14.336 32 32zM160 863.008h-32v-830.016h768v32h-736v798.016z" />
<glyph unicode="&#xe91d;" glyph-name="chart5" data-tags="chart, bars, graph" d="M864 479.008h-640v-160h640c17.664 0 32 14.304 32 32v96c0 17.664-14.336 32-32 32zM704 159.008v96c0 17.696-14.336 32-32 32h-448v-160h448c17.664 0 32 14.304 32 32zM512 543.008v96c0 17.664-14.336 32-32 32h-256v-160h256c17.664 0 32 14.336 32 32zM320 735.008v96c0 17.696-14.336 32-32 32h-64v-160h64c17.664 0 32 14.336 32 32zM160 863.008h-32v-830.016h768v32h-736v798.016z" />
<glyph unicode="&#xe91e;" glyph-name="alarm" data-tags="alarm, bell, notification" d="M864.416 151.104v-58.4h-704.832v58.4c0 0-15.072 32.288 66.72 109.728 81.728 77.408 70.976 277.504 70.976 413.024s190.336 138.4 190.336 138.4h6.528c0-0.064 0 0.928 0 22.016 0 13.536-45.44 62.56-45.44 62.56l-0.672 29.664h128.32l-0.864-30.784c0 0-49.248-48.992-49.248-63.424 0-13.952 0-18.624 0-20h10.144c0 0 190.336-2.88 190.336-138.4s-10.752-335.648 71.008-413.088 66.688-109.696 66.688-109.696zM592.384 61.76c0-44.32-35.904-92.256-80.192-92.256s-80.192 47.936-80.192 92.256c0-0.992 160.384 1.024 160.384 0z" />
<glyph unicode="&#xe91f;" glyph-name="alarm-cancel" data-tags="alarm-cancel, bell, notification" d="M889.344 151.104l0.032-58.4h-667.84l529.824 529.856c-0.96-130.528-0.672-293.632 71.296-361.76 81.76-77.44 66.688-109.696 66.688-109.696zM133.568 96.64l680.48 680.448 22.656-22.688-680.448-680.448-22.688 22.688zM251.264 260.8c81.76 77.44 71.008 277.504 71.008 413.056s190.336 138.4 190.336 138.4h6.496c0-0.064 0 0.928 0 22.016 0 13.536-45.44 62.56-45.44 62.56l-0.672 29.664h128.32l-0.896-30.784c0 0-49.216-48.992-49.216-63.424 0-13.952 0-18.624 0-20h10.144c0 0 121.632-2.048 170.336-72.16l-509.088-509.12c7.968 9.12 17.152 18.912 28.672 29.792zM617.344 61.76c0-44.32-35.904-92.256-80.192-92.256-44.32 0-80.224 47.936-80.224 92.256 0-0.992 160.416 1.024 160.416 0z" />
<glyph unicode="&#xe920;" glyph-name="phone2" data-tags="phone, fax, contact, office" d="M832-64h-672c-35.36 0-64 28.672-64 64v768c0 35.36 28.64 64 64 64v-768c0-35.328 28.672-64 64-64h128c35.36 0 64 28.672 64 64v768h416c35.36 0 64-28.672 64-64v-768c0-35.328-28.64-64-64-64zM672 32h64v64h-64v-64zM672 128h64v64h-64v-64zM672 224h64v64h-64v-64zM672 320h64v64h-64v-64zM576 32h64v64h-64v-64zM576 128h64v64h-64v-64zM576 224h64v64h-64v-64zM576 320h64v64h-64v-64zM832 736c0 17.696-14.304 32-32 32h-288c-17.664 0-32-14.304-32-32v-128c0-17.664 14.336-32 32-32h288c17.696 0 32 14.336 32 32v128zM832 384h-64v-64h64v64zM832 288h-64v-64h64v64zM832 192h-64v-64h64v64zM832 96h-64v-64h64v64zM352 32h-128c-17.664 0-32 14.304-32 32v800c0 17.696 14.336 32 32 32h62.016v64h33.984v-64h32c17.664 0 32-14.304 32-32v-800c0-17.696-14.336-32-32-32z" />
<glyph unicode="&#xe921;" glyph-name="open" data-tags="open" d="M896-32h-768c-53.024 0-96 43.008-96 96v448c0 53.024 42.976 96 96 96h768c52.992 0 96-42.976 96-96v-448c0-52.992-43.008-96-96-96zM256 382.688c-53.024 0-96-50.144-96-112 0-61.888 42.976-112 96-112 52.992 0 96 50.112 96 112 0 61.856-43.008 112-96 112zM504.96 355.264c-3.68 7.584-8.608 13.504-14.656 17.696-6.080 4.224-13.632 7.072-22.624 8.576-6.4 1.184-15.68 1.76-27.84 1.76h-57.056v-221.248h32.256v64.512h26.944c25.92 0 43.776 11.392 53.728 22.176 9.888 10.816 14.848 57.984 14.848 73.568-0.032 9.024-1.888 25.376-5.6 32.96zM672.768 193.76h-97.856v64.256h94.592v29.76h-94.592v65.76h97.6v29.76h-127.84v-221.248h128.096v31.712zM862.528 383.264h-29.248v-169.92l-96.384 169.92h-32.864v-221.248h31.264v161.952l96.384-161.952h30.88v221.248zM442.336 258.24h-27.296v95.264h26.816c10.976 0 18.496-0.544 22.592-1.632 6.304-1.76 11.424-5.312 15.296-10.752s5.824-12 5.824-19.616c0-10.56-3.296-48.704-9.888-54.528s-17.696-8.736-33.344-8.736zM256 188c-35.328 0-64 35.808-64 80s28.672 80 64 80 64-35.808 64-80-28.672-80-64-80zM800 608l-234.304 174.4c-11.008-8.864-24.8-14.4-40-14.4-21.184 0-39.808 10.4-51.424 26.272l-250.272-186.272h-32l271.776 208.576c-1.216 4.96-2.080 10.080-2.080 15.424 0 35.328 28.672 64 64 64 35.36 0 64-28.672 64-64 0-11.488-3.296-22.144-8.608-31.488l250.912-192.512h-32z" />
<glyph unicode="&#xe922;" glyph-name="graduate" data-tags="graduate, hat" horiz-adv-x="1348" d="M1044.448 398.048c0 0-146.944 149.824-349.44 149.824-197.856 0-393.44-149.824-393.44-149.824l-109.856 45.856v-134.528c17.312-5.888 29.984-21.824 29.984-41.12 0-19.488-12.928-35.456-30.496-41.216l32.48-90.592h-95.872l32.768 91.36c-15.744 6.688-26.752 22.24-26.752 40.448 0 17.824 10.688 32.992 25.952 39.904v149.088l-159.776 66.624 703.008 315.552 644.992-319.52-303.552-121.856zM687.008 471.968c203.712 0 303.552-107.84 303.552-107.84v-223.68c0 0-103.84-83.872-319.52-83.872s-287.584 83.872-287.584 83.872v223.68c0 0 99.84 107.84 303.552 107.84zM683.008 104.512c141.184 0 255.648 28.64 255.648 63.904s-114.464 63.904-255.648 63.904-255.616-28.64-255.616-63.904 114.432-63.904 255.616-63.904z" />
<glyph unicode="&#xe923;" glyph-name="tie" data-tags="tie" d="M540.864 673.024l39.936 189.568h-203.168l41.504-189.568h121.728zM418.272 637.536l-134.4-428.256 203.2-168.8 187.552 168.8-131.328 428.256h-125.024zM602.688 578.112l93.824-257.92h56.256v57.856l-150.080 200.064z" />
<glyph unicode="&#xe924;" glyph-name="mouse" data-tags="mouse, pc, computer" d="M734.592-31.104h-159.488c-105.728 0-191.392 85.696-191.392 191.392v287.104h193.408v-63.808c0-35.232 26.56-63.776 61.824-63.776h31.872c35.264 0 63.808 28.576 63.808 63.776v63.808h193.376v-287.104c0-105.696-87.712-191.392-193.408-191.392zM734.592 511.2c0 35.232-28.576 63.808-63.808 63.808v0 189.408c0 0-41.856 1.984 61.824 1.984s195.392-67.776 195.392-191.392c0-63.456 0-86.336 0-93.696h-193.408v29.888zM641.216 788c0 61.664-29.024 96-87.136 96-61.472 0-108.512-44.288-141.088-132.832l-6.688-18.144c-38.112-103.52-93.984-155.296-167.52-155.296-29.696 0-57.408 11.328-83.168 33.92-25.76 22.624-38.624 46.912-38.624 72.928 0 12.864 6.016 19.328 18.112 19.328 8.16 0 16.576-10.272 25.248-30.784 15.744-37.888 42.048-56.832 78.848-56.832 27.872 0 50.656 8.992 68.416 27.040 17.76 18.016 37.952 52.672 60.544 103.968l14.592 32.352c42.848 95.744 100.576 143.616 173.088 143.616 83.104 0 124.64-47.424 124.64-135.264h-39.264zM702.688 495.264v-95.68c0-26.432-21.408-47.84-47.84-47.84s-47.84 21.408-47.84 47.84v95.68c0 26.432 21.408 47.872 47.84 47.872s47.84-21.44 47.84-47.872zM577.088 766.4c103.648 0 63.776-1.984 63.776-1.984v-189.408c-35.232 0-63.776-28.576-63.776-63.808v-29.92h-193.408c0 7.36 0 30.24 0 93.696 0 123.648 89.728 191.424 193.408 191.424z" />
<glyph unicode="&#xe925;" glyph-name="bag" data-tags="bag, sack, money" d="M572.512 646.24h-121.28c0 0-197.44-154.592-197.44-387.456s207.552-235.104 207.552-235.104 54.016-4 100 0c0-1.984 208.8 27.68 208.8 235.296 0.032 207.552-197.632 387.264-197.632 387.264zM451.232 661.44h121.504v45.568h-121.504v-45.568zM570.88 722.176l61.696 151.904c0 0-38.944-32.288-61.696-32.288-22.816 0-58.88 31.328-58.88 31.328s-38.912-31.328-61.696-31.328-59.808 30.368-59.808 30.368l62.656-150.016h117.728z" />
<glyph unicode="&#xe926;" glyph-name="layout" data-tags="layout" d="M96 832v-800h800v800h-800zM352 64h-224v736h224v-736zM864 64h-480v736h480v-736z" />
<glyph unicode="&#xe927;" glyph-name="layout1" data-tags="layout" d="M96 832v-800h800v800h-800zM608 64h-480v736h480v-736zM864 64h-224v736h224v-736z" />
<glyph unicode="&#xe928;" glyph-name="layout2" data-tags="layout" d="M96 832v-800h800v800h-800zM352 64h-224v736h224v-736zM608 64h-224v736h224v-736zM864 64h-224v736h224v-736z" />
<glyph unicode="&#xe929;" glyph-name="equalizer" data-tags="equalizer, settings, adjust" d="M192 64h96v288h-96v-288zM576 384h-160c-17.696 0-32-14.304-32-32v-96c0-17.664 14.304-32 32-32h160c17.664 0 32 14.336 32 32v96c0 17.696-14.336 32-32 32zM448.992 256.992h-32v94.016h32v-94.016zM511.008 256.992h-32v94.016h32v-94.016zM576.992 256.992h-32v94.016h32v-94.016zM544 832h-96v-416h96v416zM800 832h-96v-160h96v160zM288 832h-96v-256h96v256zM704 64h96v384h-96v-384zM448 64h96v128h-96v-128zM320 544h-160c-17.696 0-32-14.304-32-32v-96c0-17.664 14.304-32 32-32h160c17.664 0 32 14.336 32 32v96c0 17.696-14.336 32-32 32zM192.992 416.992h-32v94.016h32v-94.016zM256.992 416.992h-32v94.016h32v-94.016zM320.992 416.992h-32v94.016h32v-94.016zM832 640h-160c-17.696 0-32-14.304-32-32v-96c0-17.664 14.304-32 32-32h160c17.664 0 32 14.336 32 32v96c0 17.696-14.336 32-32 32zM704.992 512.992h-32v94.016h32v-94.016zM767.008 512.992h-32v94.016h32v-94.016zM832.992 512.992h-32v94.016h32v-94.016z" />
<glyph unicode="&#xe92a;" glyph-name="calculator" data-tags="calculator, math, sum" d="M868.174 937.739h-712.348c-24.621 0-44.522-19.901-44.522-44.522v-934.957c0-24.576 19.901-44.522 44.522-44.522h712.348c24.576 0 44.522 19.946 44.522 44.522v934.957c0 24.621-19.946 44.522-44.522 44.522zM200.348 492.522h89.043v-89.043h-89.043v89.043zM200.348 358.957h89.043v-89.043h-89.043v89.043zM200.348 225.391h89.043v-89.043h-89.043v89.043zM422.957 2.783h-222.609v89.043h222.609v-89.043zM422.957 136.348h-89.043v89.043h89.043v-89.043zM422.957 269.913h-89.043v89.043h89.043v-89.043zM422.957 403.478h-89.043v89.043h89.043v-89.043zM556.522 2.783h-89.043v89.043h89.043v-89.043zM556.522 136.348h-89.043v89.043h89.043v-89.043zM556.522 269.913h-89.043v89.043h89.043v-89.043zM556.522 403.478h-89.043v89.043h89.043v-89.043zM690.087 2.783h-89.043v89.043h89.043v-89.043zM690.087 136.348h-89.043v89.043h89.043v-89.043zM690.087 269.913h-89.043v89.043h89.043v-89.043zM690.087 403.478h-89.043v89.043h89.043v-89.043zM823.652 2.783h-89.043v222.609h89.043v-222.609zM823.652 269.913h-89.043v89.043h89.043v-89.043zM823.652 403.478h-89.043v89.043h89.043v-89.043zM823.652 581.565h-623.304v267.13h623.304v-267.13z" />
<glyph unicode="&#xe92b;" glyph-name="library" data-tags="library, university" d="M-1.995 531.67c0 0 986.585 0 988.056 0 23.83 10.423 22.767 32.781 0.45 47.619-22.358 14.919-495.356 356.343-495.356 356.343s-469.319-341.424-493.149-356.343c-23.789-14.837-25.301-37.196 0-47.619zM491.154 767.024c39.444 0 71.448-31.964 71.448-71.408s-32.005-71.448-71.448-71.448-71.408 32.005-71.408 71.448 31.964 71.408 71.408 71.408zM22.611 1.161h938.802v39.934h-938.802v-39.934zM225.879 82.747v363.904h39.975v45.084h-204.086v-40.997h39.975v-367.951h124.135zM554.101 82.747v366.48h39.975v39.975h-204.045v-38.422h39.934v-367.951h124.135zM-18.141-80.506h1020.347v37.359h-1020.347v-37.359zM879.788 82.747v366.48h39.975v39.975h-204.086v-38.422h40.016v-367.951h124.095z" />
<glyph unicode="&#xe92c;" glyph-name="auction" data-tags="auction, judge, rule, hammer, court" d="M323.378 809.86l261.236-150.829c20.642-11.894 46.972-4.827 58.823 15.772 11.937 20.599 4.87 46.972-15.729 58.823l-261.236 150.829c-20.642 11.894-46.972 4.827-58.866-15.729-11.937-20.599-4.827-46.929 15.772-58.866zM563.109 621.712l-261.236 150.829-150.829-261.236 261.236-150.829 150.829 261.236zM86.361 399.347l261.236-150.829c20.599-11.894 46.972-4.827 58.823 15.772 11.894 20.599 4.827 46.972-15.729 58.823l-261.236 150.829c-20.642 11.894-46.972 4.827-58.866-15.729-11.937-20.599-4.827-46.972 15.772-58.866zM986.551 277.736l-477.309 250.678-43.094-74.639 455.762-287.997c30.898-17.841 70.459-7.283 88.3 23.659s7.24 70.459-23.659 88.3zM513.422 60.154c0 23.831-19.306 43.094-43.094 43.094h-387.846c-23.831 0-43.094-19.263-43.094-43.094 0-23.788 0-43.094 0-43.094l-44.516 0.905 1.422-43.999h560.222l2.025 41.284-42.404 1.81c0 0-2.715 19.306-2.715 43.094z" />
<glyph unicode="&#xe92d;" glyph-name="justice" data-tags="justice, balance, equality, court" d="M812.274 798.655l-140.493-311.855h-40.886l149.839 332h-231.35v-773.437c47.663-1.75 290.928-80.691 290.928-80.691v-37.981h-653.871v40.55c0 0 248.665 78.159 286.124 78.159v773.4h-223.977l149.876-332h-40.886l-140.493 311.855-140.493-311.855h-40.886l150.733 333.861v38.502h251.495c0 50.381 33.773 91.527 73.169 91.527 41.668 0 73.169-43.492 73.169-91.527h256.112v-33.029l153.265-339.335h-40.886l-140.493 311.855zM401.036 448.782c0-100.278-69.558-196.683-183.91-196.683-111.784 0-183.91 96.405-183.91 196.683-0.037-0.149 367.821-0.149 367.821 0zM633.465 448.782c0-0.186 367.858-0.186 367.858 0 0-100.278-69.558-196.683-183.91-196.683-111.821 0-183.948 96.405-183.948 196.683z" />
<glyph unicode="&#xe92e;" glyph-name="stats" data-tags="stats, statistics, grow, increase, up" d="M66.694 937.739h-43.943v-1024h890.435v42.874l-845.735 2.182-0.757 978.944zM156.316 47.304h222.609v484.174l-222.609-222.609v-261.565zM423.446 47.304h222.609v439.652l-89.043-89.043-133.565 133.565v-484.174zM690.577 47.304h222.609v676.152l-222.609-222.609v-453.543zM395.665 667.626l161.169-160.278 318.241 316.639 81.653-82.098-1.959 195.851-196.563-1.024 76.444-76.666-277.905-278.706-164.241 164.864-250.346-249.5 41.806-40.604 211.701 211.523z" />
<glyph unicode="&#xe92f;" glyph-name="stats1" data-tags="stats, statistics, decrease, down" d="M110.726 937.739h-43.943v-1024h890.435v42.874l-845.735 2.226-0.757 978.899zM422.957 545.414l-222.609 222.609v-720.718h222.609v498.109zM467.478 576v-528.696h222.609v573.217l-89.043 89.043-133.565-133.565zM734.609 448v-400.696h222.609v400.696h-222.609zM606.342 832.178l233.383-234.14-65.313-61.885 182.673-1.959-0.846 176.351-78.848-76.533-270.959 274.922-166.734-168.604-192.2 192.067-39.046-40.559 228.085-230.088 169.806 170.429z" />
<glyph unicode="&#xe930;" glyph-name="profile" data-tags="profile, card, id, vcard" d="M768 629.723c0 20.224-16.384 36.571-36.571 36.571h-109.714c0 0 1.207 44.032 1.207 108.032 0 59.429-49.225 113.664-110.921 113.664s-109.275-51.602-109.275-113.335c0-59.429-0.439-108.398-0.439-108.398h-109.714c-20.224 0-36.571-16.347-36.571-36.571 0-20.187 0-70.875 0-70.875h512c0 0.037 0 50.725 0 70.912zM512 705.134c-20.224 0-36.571 16.384-36.571 36.571 0 20.224 16.347 36.571 36.571 36.571 20.187 0 36.571-16.347 36.571-36.571 0-20.187-16.384-36.571-36.571-36.571zM950.857 629.723l-146.286 2.267 0.768-113.518h-585.911v108.946l-146.286 2.267c-40.375 0-73.143-32.768-73.143-73.143v-512c0-40.375 32.768-73.143 73.143-73.143h877.714c40.375 0 73.143 32.768 73.143 73.143v512c0 40.411-32.768 73.179-73.143 73.179zM292.571 417.134c44.178 0 80.018-47.067 80.018-105.143s-35.84-105.143-80.018-105.143-80.018 47.067-80.018 105.143 35.84 105.143 80.018 105.143zM134.107 83.054c0 0 8.667 69.559 28.379 82.688 19.675 13.129 76.434 21.87 76.434 21.87s36.791-39.314 52.443-39.314c15.616 0 52.407 39.314 52.407 39.314s56.759-8.704 76.471-21.87c23.15-15.433 28.928-82.688 28.928-82.688h-315.063zM877.714 117.723h-329.143v36.571h329.143v-36.571zM877.714 190.866h-329.143v36.571h329.143v-36.571zM877.714 264.009h-329.143v36.571h329.143v-36.571zM877.714 337.152h-329.143v36.571h329.143v-36.571z" />
<glyph unicode="&#xe931;" glyph-name="profile1" data-tags="profile, card, id, vcard" d="M950.857 118.857h-109.714v36.571c20.224 0 36.571 16.384 36.571 36.571 0 20.224-16.347 36.571-36.571 36.571h-73.143c-20.224 0-36.571-16.347-36.571-36.571 0-20.187 16.347-36.571 36.571-36.571v-36.571h-475.429v36.571c20.224 0 36.571 16.384 36.571 36.571 0 20.224-16.347 36.571-36.571 36.571h-73.143c-20.224 0-36.571-16.347-36.571-36.571 0-20.187 16.347-36.571 36.571-36.571v-36.571h-146.286c-40.375 0-73.143 32.768-73.143 73.143v512c0 40.375 32.768 73.143 73.143 73.143h877.714c40.375 0 73.143-32.768 73.143-73.143v-512c0-40.375-32.768-73.143-73.143-73.143zM292.571 674.304c-44.178 0-80.018-47.067-80.018-105.143s35.84-105.143 80.018-105.143 80.018 47.067 80.018 105.143-35.84 105.143-80.018 105.143zM420.206 422.839c-19.712 13.129-76.471 21.87-76.471 21.87s-36.791-39.314-52.407-39.314c-15.653 0-52.443 39.314-52.443 39.314s-56.759-8.704-76.434-21.87c-19.712-13.093-28.416-82.688-28.416-82.688h315.063c0.037 0.037-5.742 67.291-28.891 82.688zM877.714 630.857h-329.143v-36.571h329.143v36.571zM877.714 557.714h-329.143v-36.571h329.143v36.571zM877.714 484.571h-329.143v-36.571h329.143v36.571zM877.714 411.429h-329.143v-36.571h329.143v36.571z" />
<glyph unicode="&#xe932;" glyph-name="reply1" data-tags="reply, arrow, left, undo" d="M149.984 604.192l297.184-285.856v173.184c90.016 0 319.136-1.984 319.136-237.632 0-123.36-87.488-226.304-203.808-250.112 186.944 25.344 331.488 183.904 331.488 377.792 0 360.192-384.832 363.264-446.816 363.264v147.392l-297.184-288.032z" />
<glyph unicode="&#xe933;" glyph-name="forward1" data-tags="forward, arrow, right, redo" d="M873.504 604.192l-297.184-285.856v173.184c-89.984 0-319.168-1.984-319.168-237.632 0-123.36 87.52-226.304 203.872-250.112-186.944 25.344-331.52 183.904-331.52 377.792 0 360.192 384.8 363.232 446.816 363.232v147.424l297.184-288.032z" />
<glyph unicode="&#xe934;" glyph-name="shuffle" data-tags="shuffle" d="M735.008 576v-94.016l225.984 145.984-224 140-1.984-96h-188l-230.016-349.984h-252v-97.984h300l224 352h146.016zM384.992 473.984l49.984 88-69.984 110.016h-300l-1.984-96h254.016l67.968-102.016zM735.008 320h-145.984l-64 102.016-52.032-86.016 73.984-112h188l1.984-96 224 140-225.984 145.984v-93.984z" />
<glyph unicode="&#xe935;" glyph-name="info1" data-tags="info" d="M520.973 857.317c0-61.178 46.174-102.629 103.174-102.629s103.246 41.488 103.246 102.629c0 61.214-46.21 102.665-103.246 102.665-56.964 0-103.174-41.451-103.174-102.665zM297.515 507.034c0-12.134-2.216-42.25 0.291-60.378l90.059 108.369c18.637 20.417 40.18 34.694 51.187 30.843 11.044-3.851 17.075-16.82 13.478-28.881l-149.057-493.709c-17.184-57.69 15.294-114.363 94.419-127.296 115.853 0 184.696 78.398 252.413 180.009 0 12.134 4.032 44.067 1.598 62.231l-90.059-108.333c-18.673-20.417-41.814-34.694-52.858-30.879-10.172 3.56-16.13 14.895-14.132 26.193l150.111 495.997c12.497 62.994-21.434 120.321-93.147 127.659-75.419-0.036-186.585-80.25-254.302-181.826z" />
<glyph unicode="&#xe96e;" glyph-name="desktop_console" data-tags="desktop_console" d="M649.846 93.538h-59.077c-11.815 0-19.692 7.877-19.692 19.692v39.385c0 11.815-7.877 19.692-19.692 19.692h-78.769c-11.815 0-19.692-7.877-19.692-19.692v-39.385c0-11.815-7.877-19.692-19.692-19.692h-59.077c-43.323 0-78.769-35.446-78.769-78.769v-9.846c0-15.754 13.785-29.538 29.538-29.538h374.154c15.754 0 29.538 13.785 29.538 29.538v9.846c0 43.323-35.446 78.769-78.769 78.769zM905.846 920.615h-787.692c-43.323 0-78.769-35.446-78.769-78.769v-512c0-43.323 35.446-78.769 78.769-78.769h787.692c43.323 0 78.769 35.446 78.769 78.769v512c0 43.323-35.446 78.769-78.769 78.769zM157.538 398.769v374.154c0 15.754 13.785 29.538 29.538 29.538h118.154v-433.231h-118.154c-15.754 0-29.538 13.785-29.538 29.538zM866.462 398.769c0-15.754-13.785-29.538-29.538-29.538h-413.538v433.231h413.538c15.754 0 29.538-13.785 29.538-29.538v-374.154z" />
<glyph unicode="&#xea3f;" glyph-name="align-justify" data-tags="align-justify" d="M853.333 501.333h-682.667c-17.673 0-32 14.327-32 32s14.327 32 32 32v0h682.667c17.673 0 32-14.327 32-32s-14.327-32-32-32v0zM853.333 672h-682.667c-17.673 0-32 14.327-32 32s14.327 32 32 32v0h682.667c17.673 0 32-14.327 32-32s-14.327-32-32-32v0zM853.333 330.667h-682.667c-17.673 0-32 14.327-32 32s14.327 32 32 32v0h682.667c17.673 0 32-14.327 32-32s-14.327-32-32-32v0zM853.333 160h-682.667c-17.673 0-32 14.327-32 32s14.327 32 32 32v0h682.667c17.673 0 32-14.327 32-32s-14.327-32-32-32v0z" />
<glyph unicode="&#xea40;" glyph-name="align-left" data-tags="align-left" d="M594.347 490.667h-426.667c-17.673 0-32 14.327-32 32s14.327 32 32 32v0h426.667c17.673 0 32-14.327 32-32s-14.327-32-32-32v0zM856.32 661.333h-682.667c-17.673 0-32 14.327-32 32s14.327 32 32 32v0h682.667c17.673 0 32-14.327 32-32s-14.327-32-32-32v0zM856.32 320h-682.667c-17.673 0-32 14.327-32 32s14.327 32 32 32v0h682.667c17.673 0 32-14.327 32-32s-14.327-32-32-32v0zM594.347 149.333h-426.667c-17.673 0-32 14.327-32 32s14.327 32 32 32v0h426.667c17.673 0 32-14.327 32-32s-14.327-32-32-32v0z" />
<glyph unicode="&#xeaef;" glyph-name="align-right" data-tags="align-right" d="M853.333 501.333h-426.667c-17.673 0-32 14.327-32 32s14.327 32 32 32v0h426.667c17.673 0 32-14.327 32-32s-14.327-32-32-32v0zM856.32 672h-682.667c-17.673 0-32 14.327-32 32s14.327 32 32 32v0h682.667c17.673 0 32-14.327 32-32s-14.327-32-32-32v0zM856.32 330.667h-682.667c-17.673 0-32 14.327-32 32s14.327 32 32 32v0h682.667c17.673 0 32-14.327 32-32s-14.327-32-32-32v0zM853.333 160h-426.667c-17.673 0-32 14.327-32 32s14.327 32 32 32v0h426.667c17.673 0 32-14.327 32-32s-14.327-32-32-32v0z" />
<glyph unicode="&#xeaf0;" glyph-name="android" data-tags="android" d="M770.56 561.92c-22.15 0-40.107-17.956-40.107-40.107v0-181.76c0-22.15 17.956-40.107 40.107-40.107s40.107 17.956 40.107 40.107v0 181.76c0 22.15-17.956 40.107-40.107 40.107v0zM253.44 561.92c-22.15 0-40.107-17.956-40.107-40.107v0-181.76c0-22.15 17.956-40.107 40.107-40.107s40.107 17.956 40.107 40.107v0 181.76c0 22.15-17.956 40.107-40.107 40.107v0zM322.56 561.92v-273.067c0-25.214 20.44-45.653 45.653-45.653v0h29.013v-96.853c0-22.15 17.956-40.107 40.107-40.107s40.107 17.956 40.107 40.107v0 0 96.853h69.12v-96.853c0-22.15 17.956-40.107 40.107-40.107s40.107 17.956 40.107 40.107v0 96.853h29.013c25.214 0 45.653 20.44 45.653 45.653v0 273.067zM696.32 618.667c-13.064 42.918-40.828 78.025-77.303 100.253l-0.777 0.44-6.4 3.84-6.827 3.413 7.68 13.227 22.613 42.667c0.215 0.592 0.34 1.274 0.34 1.986 0 1.984-0.967 3.742-2.456 4.829l-0.017 0.012h-2.987c-2.281-0.105-4.275-1.249-5.532-2.966l-0.014-0.020-23.040-39.68-7.253-13.227-6.827 2.987-7.253 2.56c-20.342 7.293-43.812 11.509-68.267 11.509s-47.924-4.216-69.722-11.96l1.455 0.451-6.827-2.56-7.253-2.987-7.253 13.227-23.040 42.667c-1.067 1.879-3.055 3.126-5.333 3.126-3.376 0-6.113-2.737-6.113-6.113 0-1.097 0.289-2.127 0.795-3.017l-0.016 0.030 22.613-42.667 7.68-13.227-6.827-3.413-6.4-3.84c-37.399-22.744-65.122-58.235-77.348-100.32l-0.305-1.227c-3.161-10.134-5.162-21.827-5.542-33.928l-0.005-0.206h378.88c-0.46 12.331-2.3 24.026-5.373 35.211l0.253-1.078zM426.667 641.28c-9.426 0-17.067 7.641-17.067 17.067s7.641 17.067 17.067 17.067c9.426 0 17.067-7.641 17.067-17.067v0c0-9.426-7.641-17.067-17.067-17.067v0zM597.333 641.28c-9.426 0-17.067 7.641-17.067 17.067s7.641 17.067 17.067 17.067c9.426 0 17.067-7.641 17.067-17.067v0c0-9.426-7.641-17.067-17.067-17.067v0z" />
<glyph unicode="&#xeb02;" glyph-name="leave_group" data-tags="leave_group" d="M596.677 524.8c-39.385 17.723-47.262 33.477-47.262 51.2s11.815 33.477 23.631 47.262c23.631 21.662 35.446 53.169 35.446 90.585 1.969 68.923-37.415 128-110.277 128-43.323 0-72.862-21.662-92.554-53.169 49.231-37.415 78.769-102.4 78.769-177.231 0-43.323-11.815-84.677-33.477-120.123-7.877-11.815-3.938-29.538 9.846-37.415 41.354-21.662 88.615-49.231 116.185-96.492 3.938-7.877 11.815-9.846 21.662-9.846h53.169c33.477 0 57.108 23.631 57.108 61.046-1.969 57.108-55.138 90.585-112.246 116.185zM387.938 406.646c-45.292 19.692-51.2 37.415-51.2 57.108s11.815 39.385 27.569 53.169c25.6 25.6 39.385 61.046 39.385 102.4 0 76.8-45.292 143.754-124.062 143.754-1.969 0-1.969 0-3.938 0s-1.969 0-3.938 0c-78.769 0-124.062-66.954-124.062-143.754 0-41.354 13.785-76.8 39.385-102.4 15.754-13.785 27.569-33.477 27.569-53.169s-5.908-37.415-51.2-57.108c-64.985-29.538-126.031-59.077-128-120.123 3.938-43.323 33.477-74.831 70.892-74.831h342.646c37.415 0 66.954 31.508 66.954 72.862-1.969 63.015-64.985 92.554-128 122.092zM630.154 123.077v59.077c0 15.754 13.785 29.538 29.538 29.538h295.385c15.754 0 29.538-13.785 29.538-29.538v-59.077c0-15.754-13.785-29.538-29.538-29.538h-295.385c-15.754 0-29.538 13.785-29.538 29.538z" />
<glyph unicode="&#xeb03;" glyph-name="log_event" data-tags="log_event" d="M762.092 168.369l-94.523-31.508c-7.877-1.969-17.723-3.938-25.6-3.938-27.569 0-55.138 13.785-72.862 35.446s-21.662 53.169-15.754 80.738l31.508 112.246 147.692 147.692c5.908 5.908 1.969 17.723-7.877 17.723h-616.369c-15.754 0-29.538-13.785-29.538-29.538v-364.308c0-43.323 35.446-78.769 78.769-78.769h551.385c43.323 0 78.769 35.446 78.769 78.769v15.754c0 13.785-13.785 23.631-25.6 19.692zM108.308 605.538h649.846c15.754 0 29.538 13.785 29.538 29.538v49.231c0 43.323-35.446 78.769-78.769 78.769h-59.077v19.692c0 31.508-25.6 59.077-59.077 59.077v0c-31.508 0-59.077-25.6-59.077-59.077v-19.692h-196.923v19.692c0 31.508-25.6 59.077-59.077 59.077v0c-31.508 0-59.077-25.6-59.077-59.077v-19.692h-59.077c-43.323 0-78.769-35.446-78.769-78.769v-49.231c0-15.754 13.785-29.538 29.538-29.538zM856.615 505.108c-3.938 3.938-9.846 3.938-13.785 0l-185.108-185.108-27.569-92.554c-1.969-9.846 5.908-17.723 15.754-15.754l92.554 27.569 185.108 185.108c3.938 3.938 3.938 9.846 0 13.785l-66.954 66.954zM1014.154 562.215l-35.446 35.446c-11.815 11.815-33.477 11.815-47.262 0 0 0-21.662-21.662-31.508-33.477-3.938-3.938-3.938-9.846 0-13.785l66.954-66.954c3.938-3.938 9.846-3.938 13.785 0 11.815 11.815 33.477 31.508 33.477 31.508 13.785 11.815 13.785 33.477 0 47.262z" />
<glyph unicode="&#xeb54;" glyph-name="new_custom73" data-tags="new_custom73" d="M94.523 684.308h834.954c19.692 0 35.446 19.692 29.538 39.385-19.692 64.985-47.262 124.062-84.677 177.231-11.815 15.754-33.477 17.723-45.292 3.938-37.415-35.446-90.585-55.138-145.723-55.138-59.077 0-112.246 23.631-151.631 63.015-11.815 11.815-31.508 11.815-43.323 0-39.385-39.385-92.554-63.015-151.631-63.015-55.138 0-106.338 19.692-145.723 55.138-11.815 11.815-31.508 9.846-43.323-5.908-37.415-51.2-66.954-112.246-84.677-177.231-3.938-17.723 11.815-37.415 31.508-37.415zM984.615 558.277c0 17.723-13.785 31.508-31.508 31.508h-882.215c-17.723 0-31.508-13.785-31.508-31.508 0-1.969 0-3.938 0-5.908 0-295.385 204.8-539.569 472.615-576.985 267.815 37.415 472.615 281.6 472.615 575.015 0 3.938 0 5.908 0 7.877z" />
<glyph unicode="&#xeb7f;" glyph-name="angle-double-down" data-tags="angle-double-down" d="M512 224c-0.044 0-0.097 0-0.149 0-8.788 0-16.737 3.59-22.461 9.384l-0.003 0.003-148.053 149.333c-3.228 4.914-5.15 10.937-5.15 17.409 0 17.673 14.327 32 32 32 5.817 0 11.271-1.552 15.971-4.264l-0.155 0.082 128-128 128 128c4.546 2.63 10 4.182 15.816 4.182 17.673 0 32-14.327 32-32 0-6.472-1.921-12.495-5.224-17.53l0.075 0.121-148.053-148.053c-5.584-6.307-13.597-10.354-22.56-10.665l-0.054-0.001zM512 458.667c-0.044 0-0.097 0-0.149 0-8.788 0-16.737 3.59-22.461 9.384l-0.003 0.003-148.053 150.613c-1.971 4.034-3.124 8.778-3.124 13.791 0 17.673 14.327 32 32 32 5.013 0 9.757-1.153 13.981-3.208l-0.19 0.083 128-128 128 128c4.034 1.971 8.778 3.124 13.791 3.124 17.673 0 32-14.327 32-32 0-5.013-1.153-9.757-3.208-13.981l0.083 0.19-149.333-149.333c-5.297-6.020-12.795-9.995-21.224-10.66l-0.11-0.007z" />
<glyph unicode="&#xeb89;" glyph-name="angle-double-left" data-tags="angle-double-left" d="M469.333 266.667c-0.044 0-0.097 0-0.149 0-8.788 0-16.737 3.59-22.461 9.384l-0.003 0.003-148.053 149.333c-5.782 5.789-9.359 13.784-9.359 22.613s3.576 16.824 9.359 22.614v0l148.053 148.053c4.914 3.228 10.937 5.15 17.409 5.15 17.673 0 32-14.327 32-32 0-5.817-1.552-11.271-4.264-15.971l0.082 0.155-128-128 128-128c5.782-5.789 9.359-13.784 9.359-22.613s-3.576-16.824-9.359-22.614v0c-5.575-5.050-13.007-8.14-21.16-8.14-0.511 0-1.019 0.012-1.524 0.036l0.071-0.003zM704 266.667c-8.538 0.672-16.036 4.646-21.303 10.632l-0.030 0.035-149.333 149.333c-5.782 5.789-9.359 13.784-9.359 22.613s3.576 16.824 9.359 22.614v0l149.333 146.773c4.034 1.971 8.778 3.124 13.791 3.124 17.673 0 32-14.327 32-32 0-5.013-1.153-9.757-3.208-13.981l0.083 0.19-128-128 128-128c5.057-5.635 8.149-13.123 8.149-21.333s-3.092-15.698-8.175-21.363l0.026 0.030c-5.297-6.020-12.795-9.995-21.224-10.66l-0.11-0.007z" />
<glyph unicode="&#xeb8a;" glyph-name="angle-double-right" data-tags="angle-double-right" d="M554.667 266.667c-0.044 0-0.097 0-0.149 0-8.788 0-16.737 3.59-22.461 9.384l-0.003 0.003c-5.782 5.789-9.359 13.784-9.359 22.613s3.576 16.824 9.359 22.614v0l128 128-128 128c-2.009 4.067-3.184 8.853-3.184 13.915 0 17.673 14.327 32 32 32 6.058 0 11.724-1.684 16.553-4.608l-0.143 0.080 149.333-149.333c5.782-5.789 9.359-13.784 9.359-22.613s-3.576-16.824-9.359-22.614v0l-149.333-146.773c-5.584-6.307-13.597-10.354-22.56-10.665l-0.054-0.001zM320 266.667c-8.538 0.672-16.036 4.646-21.303 10.632l-0.030 0.035c-5.057 5.635-8.149 13.123-8.149 21.333s3.092 15.698 8.175 21.363l-0.026-0.030 128 128-128 128c-1.971 4.034-3.124 8.778-3.124 13.791 0 17.673 14.327 32 32 32 5.013 0 9.757-1.153 13.981-3.208l-0.19 0.083 149.333-149.333c5.782-5.789 9.359-13.784 9.359-22.613s-3.576-16.824-9.359-22.614v0l-149.333-146.773c-5.297-6.020-12.795-9.995-21.224-10.66l-0.11-0.007z" />
<glyph unicode="&#xeb8b;" glyph-name="angle-double-up" data-tags="angle-double-up" d="M661.333 458.667c-0.044 0-0.097 0-0.149 0-8.788 0-16.737 3.59-22.461 9.384l-128.003 128.003-128-128c-4.067-2.009-8.853-3.184-13.915-3.184-17.673 0-32 14.327-32 32 0 6.058 1.684 11.724 4.608 16.553l-0.080-0.143 148.053 148.053c5.789 5.782 13.784 9.359 22.613 9.359s16.824-3.576 22.614-9.359v0l149.333-149.333c5.782-5.789 9.359-13.784 9.359-22.613s-3.576-16.824-9.359-22.614v0c-5.575-5.050-13.007-8.14-21.16-8.14-0.511 0-1.019 0.012-1.524 0.036l0.071-0.003zM661.333 224c-8.538 0.672-16.036 4.646-21.303 10.632l-0.030 0.035-128 128-128-128c-4.034-1.971-8.778-3.124-13.791-3.124-17.673 0-32 14.327-32 32 0 5.013 1.153 9.757 3.208 13.981l-0.083-0.19 149.333 149.333c5.789 5.782 13.784 9.359 22.613 9.359s16.824-3.576 22.614-9.359v0l146.773-149.333c5.057-5.635 8.149-13.123 8.149-21.333s-3.092-15.698-8.175-21.363l0.026 0.030c-5.297-6.020-12.795-9.995-21.224-10.66l-0.11-0.007z" />
<glyph unicode="&#xeb8c;" glyph-name="angle-down" data-tags="angle-down" d="M512 341.333c-0.044 0-0.097 0-0.149 0-8.788 0-16.737 3.59-22.461 9.384l-0.003 0.003-148.053 149.333c-3.228 4.914-5.15 10.937-5.15 17.409 0 17.673 14.327 32 32 32 5.817 0 11.271-1.552 15.971-4.264l-0.155 0.082 128-128 128 128c4.546 2.63 10 4.182 15.816 4.182 17.673 0 32-14.327 32-32 0-6.472-1.921-12.495-5.224-17.53l0.075 0.121-149.333-149.333c-5.466-5.542-12.959-9.072-21.275-9.385l-0.058-0.002z" />
<glyph unicode="&#xeb8d;" glyph-name="angle-left" data-tags="angle-left" d="M586.667 266.667c-0.044 0-0.097 0-0.149 0-8.788 0-16.737 3.59-22.461 9.384l-149.336 149.336c-5.782 5.789-9.359 13.784-9.359 22.613s3.576 16.824 9.359 22.614v0l149.333 148.053c4.914 3.228 10.937 5.15 17.409 5.15 17.673 0 32-14.327 32-32 0-5.817-1.552-11.271-4.264-15.971l0.082 0.155-128-128 128-128c5.782-5.789 9.359-13.784 9.359-22.613s-3.576-16.824-9.359-22.614v0c-5.575-5.050-13.007-8.14-21.16-8.14-0.511 0-1.019 0.012-1.524 0.036l0.071-0.003z" />
<glyph unicode="&#xeb8e;" glyph-name="angle-right" data-tags="angle-right" d="M437.333 266.667c-9.016 0.313-17.029 4.36-22.584 10.633l-0.029 0.033c-5.782 5.789-9.359 13.784-9.359 22.613s3.576 16.824 9.359 22.614v0l128 128-128 128c-1.526 3.603-2.412 7.792-2.412 12.188 0 17.673 14.327 32 32 32 5.745 0 11.136-1.514 15.797-4.165l-0.158 0.083 149.333-149.333c5.782-5.789 9.359-13.784 9.359-22.613s-3.576-16.824-9.359-22.614v0l-149.333-146.773c-5.584-6.307-13.597-10.354-22.56-10.665l-0.054-0.001z" />
<glyph unicode="&#xeb8f;" glyph-name="angle-up" data-tags="angle-up" d="M661.333 341.333c-0.044 0-0.097 0-0.149 0-8.788 0-16.737 3.59-22.461 9.384l-128.003 128.003-128-128c-4.067-2.009-8.853-3.184-13.915-3.184-17.673 0-32 14.327-32 32 0 6.058 1.684 11.724 4.608 16.553l-0.080-0.143 149.333 149.333c5.789 5.782 13.784 9.359 22.613 9.359s16.824-3.576 22.614-9.359v0l149.333-149.333c5.782-5.789 9.359-13.784 9.359-22.613s-3.576-16.824-9.359-22.614v0c-5.73-5.815-13.692-9.418-22.494-9.418-0.492 0-0.981 0.011-1.468 0.034l0.069-0.003z" />
<glyph unicode="&#xeb90;" glyph-name="apple" data-tags="apple" d="M704.853 428.373c-0.017 0.819-0.027 1.784-0.027 2.752 0 54.148 30.474 101.179 75.207 124.877l0.767 0.37c-29.155 40.19-75.331 66.495-127.728 68.259l-0.272 0.007c-54.187 4.267-113.067-31.573-134.827-31.573s-75.52 29.867-116.48 29.867c-85.333 0-175.36-67.84-175.36-203.093 0.448-44.466 8.383-86.938 22.602-126.41l-0.842 2.677c18.773-54.613 89.173-191.573 162.56-189.44 38.4 0 65.707 27.307 115.627 27.307s73.387-27.307 116.48-27.307c73.813 0 137.813 125.867 156.16 181.76-55.538 23.15-93.867 77-93.867 139.801 0 0.051 0 0.103 0 0.154v-0.008zM619.52 678.827c22.477 25.256 36.209 58.726 36.209 95.402 0 5.32-0.289 10.573-0.852 15.744l0.057-0.64c-41.308-4.654-77.328-24.252-103.113-53.173l-0.141-0.16c-24.743-26.031-39.963-61.317-39.963-100.158 0-3.191 0.103-6.357 0.305-9.497l-0.022 0.428c1.071-0.032 2.331-0.050 3.595-0.050 42.128 0 79.503 20.352 102.828 51.761l0.244 0.343z" />
<glyph unicode="&#xeb91;" glyph-name="arrow-circle-down" data-tags="arrow-circle-down" d="M512 64c-212.077 0-384 171.923-384 384s171.923 384 384 384c212.077 0 384-171.923 384-384v0c0-212.077-171.923-384-384-384v0zM512 768c-176.731 0-320-143.269-320-320s143.269-320 320-320c176.731 0 320 143.269 320 320v0c0 176.731-143.269 320-320 320v0zM512 245.333c-0.044 0-0.097 0-0.149 0-8.788 0-16.737 3.59-22.461 9.384l-170.67 170.67c-5.321 5.699-8.588 13.376-8.588 21.815 0 17.673 14.327 32 32 32 8.44 0 16.116-3.267 21.834-8.606l-0.019 0.017 148.053-148.053 148.053 148.053c5.699 5.321 13.376 8.588 21.815 8.588 17.673 0 32-14.327 32-32 0-8.44-3.267-16.116-8.606-21.834l0.017 0.019-170.667-170.667c-5.727-5.797-13.676-9.387-22.464-9.387-0.052 0-0.105 0-0.157 0h0.008zM512 245.333c-17.577 0.237-31.763 14.423-32 31.977v341.356c0 17.673 14.327 32 32 32s32-14.327 32-32v0-341.333c-0.237-17.577-14.423-31.763-31.977-32h-0.023z" />
<glyph unicode="&#xeb92;" glyph-name="arrow-circle-left" data-tags="arrow-circle-left" d="M512 64c-212.077 0-384 171.923-384 384s171.923 384 384 384c212.077 0 384-171.923 384-384v0c0-212.077-171.923-384-384-384v0zM512 768c-176.731 0-320-143.269-320-320s143.269-320 320-320c176.731 0 320 143.269 320 320v0c0 176.731-143.269 320-320 320v0zM512 245.333c-0.044 0-0.097 0-0.149 0-8.788 0-16.737 3.59-22.461 9.384l-170.67 170.67c-5.782 5.789-9.359 13.784-9.359 22.613s3.576 16.824 9.359 22.614v0l170.667 170.667c5.699 5.321 13.376 8.588 21.815 8.588 17.673 0 32-14.327 32-32 0-8.44-3.267-16.116-8.606-21.834l0.017 0.019-148.053-148.053 148.053-148.053c5.782-5.789 9.359-13.784 9.359-22.613s-3.576-16.824-9.359-22.614v0c-5.727-5.797-13.676-9.387-22.464-9.387-0.052 0-0.105 0-0.157 0h0.008zM682.667 416h-341.333c-17.673 0-32 14.327-32 32s14.327 32 32 32v0h341.333c17.673 0 32-14.327 32-32s-14.327-32-32-32v0z" />
<glyph unicode="&#xeb93;" glyph-name="arrow-circle-right" data-tags="arrow-circle-right" d="M512 64c-212.077 0-384 171.923-384 384s171.923 384 384 384c212.077 0 384-171.923 384-384v0c0-212.077-171.923-384-384-384v0zM512 768c-176.731 0-320-143.269-320-320s143.269-320 320-320c176.731 0 320 143.269 320 320v0c0 176.731-143.269 320-320 320v0zM512 245.333c-0.044 0-0.097 0-0.149 0-8.788 0-16.737 3.59-22.461 9.384l-0.003 0.003c-5.782 5.789-9.359 13.784-9.359 22.613s3.576 16.824 9.359 22.614v0l148.053 148.053-148.053 148.053c-5.321 5.699-8.588 13.376-8.588 21.815 0 17.673 14.327 32 32 32 8.44 0 16.116-3.267 21.834-8.606l-0.019 0.017 170.667-170.667c5.782-5.789 9.359-13.784 9.359-22.613s-3.576-16.824-9.359-22.614v0l-170.667-170.667c-5.727-5.797-13.676-9.387-22.464-9.387-0.052 0-0.105 0-0.157 0h0.008zM682.667 416h-341.333c-17.673 0-32 14.327-32 32s14.327 32 32 32v0h341.333c17.673 0 32-14.327 32-32s-14.327-32-32-32v0z" />
<glyph unicode="&#xeb94;" glyph-name="arrow-circle-up" data-tags="arrow-circle-up" d="M512 64c-212.077 0-384 171.923-384 384s171.923 384 384 384c212.077 0 384-171.923 384-384v0c0-212.077-171.923-384-384-384v0zM512 768c-176.731 0-320-143.269-320-320s143.269-320 320-320c176.731 0 320 143.269 320 320v0c0 176.731-143.269 320-320 320v0zM682.667 416c-0.044 0-0.097 0-0.149 0-8.788 0-16.737 3.59-22.461 9.384l-148.056 148.056-148.053-148.053c-5.699-5.321-13.376-8.588-21.815-8.588-17.673 0-32 14.327-32 32 0 8.44 3.267 16.116 8.606 21.834l-0.017-0.019 170.667 170.667c5.789 5.782 13.784 9.359 22.613 9.359s16.824-3.576 22.614-9.359v0l170.667-170.667c5.782-5.789 9.359-13.784 9.359-22.613s-3.576-16.824-9.359-22.614v0c-5.727-5.797-13.676-9.387-22.464-9.387-0.052 0-0.105 0-0.157 0h0.008zM512 245.333c-17.577 0.237-31.763 14.423-32 31.977v341.356c0 17.673 14.327 32 32 32s32-14.327 32-32v0-341.333c-0.237-17.577-14.423-31.763-31.977-32h-0.023z" />
<glyph unicode="&#xeb95;" glyph-name="arrow-down" data-tags="arrow-down" d="M512 117.333c-0.044 0-0.097 0-0.149 0-8.788 0-16.737 3.59-22.461 9.384l-256.003 256.003c-5.321 5.699-8.588 13.376-8.588 21.815 0 17.673 14.327 32 32 32 8.44 0 16.116-3.267 21.834-8.606l-0.019 0.017 233.387-233.387 233.387 233.387c5.699 5.321 13.376 8.588 21.815 8.588 17.673 0 32-14.327 32-32 0-8.44-3.267-16.116-8.606-21.834l0.017 0.019-256-256c-5.727-5.797-13.676-9.387-22.464-9.387-0.052 0-0.105 0-0.157 0h0.008zM512 117.333c-17.577 0.237-31.763 14.423-32 31.977v597.356c0 17.673 14.327 32 32 32s32-14.327 32-32v0-597.333c-0.237-17.577-14.423-31.763-31.977-32h-0.023z" />
<glyph unicode="&#xeb96;" glyph-name="arrow-down-left" data-tags="arrow-down-left" d="M663.040 204.8c17.673 0 32 14.327 32 32s-14.327 32-32 32v0h-285.013l367.787 367.787c6.274 5.858 10.185 14.178 10.185 23.412 0 17.673-14.327 32-32 32-9.234 0-17.554-3.911-23.394-10.166l-0.017-0.019-367.787-367.787v285.013c0 17.673-14.327 32-32 32s-32-14.327-32-32v0-364.373c0.024-4.475 0.964-8.725 2.64-12.58l-0.080 0.207c5.046-11.535 16.298-19.479 29.421-19.626h0.019z" />
<glyph unicode="&#xeb97;" glyph-name="arrow-down-right" data-tags="arrow-down-right" d="M755.2 599.040c0 17.673-14.327 32-32 32s-32-14.327-32-32v0-285.013l-367.787 367.787c-5.699 5.321-13.376 8.588-21.815 8.588-17.673 0-32-14.327-32-32 0-8.44 3.267-16.116 8.606-21.834l-0.017 0.019 367.787-367.787h-285.013c-17.673 0-32-14.327-32-32s14.327-32 32-32v0h364.373c4.475 0.024 8.725 0.964 12.58 2.64l-0.207-0.080c10.058 5.283 16.929 15.432 17.491 27.233l0.003 0.073z" />
<glyph unicode="&#xeb98;" glyph-name="arrow-left" data-tags="arrow-left" d="M469.333 160c-0.044 0-0.097 0-0.149 0-8.788 0-16.737 3.59-22.461 9.384l-256.003 256.003c-5.782 5.789-9.359 13.784-9.359 22.613s3.576 16.824 9.359 22.614v0l256 256c5.699 5.321 13.376 8.588 21.815 8.588 17.673 0 32-14.327 32-32 0-8.44-3.267-16.116-8.606-21.834l0.017 0.019-233.387-233.387 233.387-233.387c5.782-5.789 9.359-13.784 9.359-22.613s-3.576-16.824-9.359-22.614v0c-5.727-5.797-13.676-9.387-22.464-9.387-0.052 0-0.105 0-0.157 0h0.008zM810.667 416h-597.333c-17.673 0-32 14.327-32 32s14.327 32 32 32v0h597.333c17.673 0 32-14.327 32-32s-14.327-32-32-32v0z" />
<glyph unicode="&#xeb99;" glyph-name="arrow-right" data-tags="arrow-right" d="M554.667 160c-0.044 0-0.097 0-0.149 0-8.788 0-16.737 3.59-22.461 9.384l-0.003 0.003c-5.782 5.789-9.359 13.784-9.359 22.613s3.576 16.824 9.359 22.614v0l233.387 233.387-233.387 233.387c-5.321 5.699-8.588 13.376-8.588 21.815 0 17.673 14.327 32 32 32 8.44 0 16.116-3.267 21.834-8.606l-0.019 0.017 256-256c5.782-5.789 9.359-13.784 9.359-22.613s-3.576-16.824-9.359-22.614v0l-256-256c-5.727-5.797-13.676-9.387-22.464-9.387-0.052 0-0.105 0-0.157 0h0.008zM810.667 416h-597.333c-17.673 0-32 14.327-32 32s14.327 32 32 32v0h597.333c17.673 0 32-14.327 32-32s-14.327-32-32-32v0z" />
<glyph unicode="&#xeb9a;" glyph-name="arrows-h" data-tags="arrows-h" d="M882.773 460.373c-1.712 3.968-4.012 7.363-6.833 10.246l-170.661 170.661c-5.858 6.274-14.178 10.185-23.412 10.185-17.673 0-32-14.327-32-32 0-9.234 3.911-17.554 10.166-23.394l0.019-0.017 116.053-116.053h-528.213l116.053 116.053c5.321 5.699 8.588 13.376 8.588 21.815 0 17.673-14.327 32-32 32-8.44 0-16.116-3.267-21.834-8.606l0.019 0.017-170.667-170.667c-2.814-2.877-5.115-6.272-6.743-10.025l-0.083-0.215c-1.62-3.646-2.563-7.9-2.563-12.373s0.943-8.727 2.642-12.573l-0.079 0.199c1.712-3.968 4.012-7.363 6.833-10.246l170.661-170.661c5.789-5.782 13.784-9.359 22.613-9.359s16.824 3.576 22.614 9.359v0c5.782 5.789 9.359 13.784 9.359 22.613s-3.576 16.824-9.359 22.614v0l-116.053 116.053h528.213l-116.053-116.053c-5.782-5.789-9.359-13.784-9.359-22.613s3.576-16.824 9.359-22.614v0c5.789-5.782 13.784-9.359 22.613-9.359s16.824 3.576 22.614 9.359v0l170.667 170.667c2.814 2.877 5.115 6.272 6.743 10.025l0.083 0.215c1.62 3.646 2.563 7.9 2.563 12.373s-0.943 8.727-2.642 12.573l0.079-0.199z" />
<glyph unicode="&#xeb9b;" glyph-name="arrows-v" data-tags="arrows-v" d="M524.373 77.227c3.968 1.712 7.363 4.012 10.246 6.833l170.661 170.661c5.321 5.699 8.588 13.376 8.588 21.815 0 17.673-14.327 32-32 32-8.44 0-16.116-3.267-21.834-8.606l0.019 0.017-116.053-116.053v528.213l116.053-116.053c5.699-5.321 13.376-8.588 21.815-8.588 17.673 0 32 14.327 32 32 0 8.44-3.267 16.116-8.606 21.834l0.017-0.019-170.667 170.667c-2.877 2.814-6.272 5.115-10.025 6.743l-0.215 0.083c-3.646 1.62-7.9 2.563-12.373 2.563s-8.727-0.943-12.573-2.642l0.199 0.079c-3.968-1.712-7.363-4.012-10.246-6.833l-170.661-170.661c-5.782-5.789-9.359-13.784-9.359-22.613s3.576-16.824 9.359-22.614v0c5.789-5.782 13.784-9.359 22.613-9.359s16.824 3.576 22.614 9.359v0l116.053 116.053v-528.213l-116.053 116.053c-5.789 5.782-13.784 9.359-22.613 9.359s-16.824-3.576-22.614-9.359v0c-5.782-5.789-9.359-13.784-9.359-22.613s3.576-16.824 9.359-22.614v0l170.667-170.667c2.877-2.814 6.272-5.115 10.025-6.743l0.215-0.083c3.646-1.62 7.9-2.563 12.373-2.563s8.727 0.943 12.573 2.642l-0.199-0.079z" />
<glyph unicode="&#xeb9c;" glyph-name="arrow-up" data-tags="arrow-up" d="M768 458.667c-0.044 0-0.097 0-0.149 0-8.788 0-16.737 3.59-22.461 9.384l-233.39 233.39-233.387-233.387c-5.699-5.321-13.376-8.588-21.815-8.588-17.673 0-32 14.327-32 32 0 8.44 3.267 16.116 8.606 21.834l-0.017-0.019 256 256c5.789 5.782 13.784 9.359 22.613 9.359s16.824-3.576 22.614-9.359v0l256-256c5.782-5.789 9.359-13.784 9.359-22.613s-3.576-16.824-9.359-22.614v0c-5.727-5.797-13.676-9.387-22.464-9.387-0.052 0-0.105 0-0.157 0h0.008zM512 117.333c-17.577 0.237-31.763 14.423-32 31.977v597.356c0 17.673 14.327 32 32 32s32-14.327 32-32v0-597.333c-0.237-17.577-14.423-31.763-31.977-32h-0.023z" />
<glyph unicode="&#xeb9d;" glyph-name="arrow-up-left" data-tags="arrow-up-left" d="M268.8 296.96c0-17.673 14.327-32 32-32s32 14.327 32 32v0 285.013l367.787-367.787c5.858-6.274 14.178-10.185 23.412-10.185 17.673 0 32 14.327 32 32 0 9.234-3.911 17.554-10.166 23.394l-0.019 0.017-367.787 367.787h285.013c17.673 0 32 14.327 32 32s-14.327 32-32 32v0h-362.24c-4.475-0.024-8.725-0.964-12.58-2.64l0.207 0.080c-11.535-5.046-19.479-16.298-19.626-29.421v-0.019z" />
<glyph unicode="&#xeb9e;" glyph-name="arrow-up-right" data-tags="arrow-up-right" d="M360.96 691.2c-17.673 0-32-14.327-32-32s14.327-32 32-32v0h285.013l-367.787-367.787c-6.274-5.858-10.185-14.178-10.185-23.412 0-17.673 14.327-32 32-32 9.234 0 17.554 3.911 23.394 10.166l0.017 0.019 367.787 367.787v-285.013c0-17.673 14.327-32 32-32s32 14.327 32 32v0 362.24c-0.024 4.475-0.964 8.725-2.64 12.58l0.080-0.207c-4.738 10.927-15.015 18.637-27.192 19.619l-0.115 0.007z" />
<glyph unicode="&#xeb9f;" glyph-name="at" data-tags="at" d="M512 821.333c-206.186 0-373.333-167.147-373.333-373.333v0c-0.016-1.276-0.025-2.783-0.025-4.292 0-203.83 165.237-369.067 369.067-369.067 1.509 0 3.015 0.009 4.52 0.027l-0.228-0.002c17.673 0 32 14.327 32 32s-14.327 32-32 32v0c-1.020-0.012-2.226-0.019-3.433-0.019-168.955 0-305.92 136.965-305.92 305.92 0 1.207 0.007 2.412 0.021 3.616l-0.002-0.183c0.243 170.743 138.591 309.091 309.31 309.333h0.023c205.227 0 309.333-104.107 309.333-309.333v-58.88c0.136-1.543 0.213-3.338 0.213-5.151 0-34.404-27.89-62.293-62.293-62.293s-62.293 27.89-62.293 62.293c0 1.813 0.077 3.608 0.229 5.382l-0.016-0.231v213.333c0 17.673-14.327 32-32 32s-32-14.327-32-32v0-14.507c-32.122 28.093-74.451 45.227-120.783 45.227-0.137 0-0.275 0-0.412 0h0.021c-102.268 0-185.173-82.905-185.173-185.173s82.905-185.173 185.173-185.173v0c55.152 0.197 104.542 24.698 138.046 63.345l0.194 0.228c22.116-38.105 62.727-63.321 109.227-63.321 69.514 0 125.867 56.352 125.867 125.867 0 0.061 0 0.123 0 0.184v-0.010 58.88c0 240.64-132.693 373.333-373.333 373.333zM512 326.827c-66.922 0-121.173 54.251-121.173 121.173s54.251 121.173 121.173 121.173c66.922 0 121.173-54.251 121.173-121.173v0c-0.242-66.825-54.349-120.932-121.15-121.173h-0.023z" />
<glyph unicode="&#xeba0;" glyph-name="backward" data-tags="backward" d="M853.333 106.667c-0.051 0-0.111 0-0.172 0-8.358 0-15.957 3.247-21.605 8.549l0.017-0.016-319.573 298.667c-6.309 5.862-10.244 14.205-10.244 23.467s3.935 17.605 10.224 23.448l0.020 0.018 318.72 298.667c5.692 5.291 13.347 8.537 21.76 8.537 17.673 0 32-14.327 32-32 0-0.001 0-0.003 0-0.004v0-597.333c-0.069-13.053-7.84-24.274-18.997-29.357l-0.203-0.083c-3.521-1.493-7.607-2.421-11.893-2.559l-0.054-0.001zM581.547 437.333l239.787-224.853v448.853zM489.387 106.667c-8.54 0.060-16.315 3.286-22.219 8.562l0.033-0.029-318.293 298.667c-6.309 5.862-10.244 14.205-10.244 23.467s3.935 17.605 10.224 23.448l0.020 0.018 320.427 298.667c5.73 5.204 13.376 8.39 21.765 8.39 17.708 0 32.101-14.195 32.421-31.826v-597.363c-0.030-13.178-8.021-24.482-19.418-29.361l-0.209-0.079c-3.659-1.662-7.935-2.63-12.436-2.63-0.728 0-1.451 0.025-2.167 0.075l0.097-0.005zM217.6 437.333l239.787-224.853v448.853z" />
<glyph unicode="&#xeba1;" glyph-name="ban" data-tags="ban" d="M512 832c-212.077 0-384-171.923-384-384s171.923-384 384-384c212.077 0 384 171.923 384 384v0c0 212.077-171.923 384-384 384v0zM192 448c0 0.083 0 0.18 0 0.277 0 76.966 27.391 147.534 72.957 202.489l-0.424-0.526 449.707-449.707c-54.687-45.12-125.481-72.484-202.667-72.484-176.495 0-319.573 143.078-319.573 319.573 0 0.133 0 0.265 0 0.398v-0.021zM759.467 245.76l-449.707 449.707c54.641 44.983 125.331 72.258 202.391 72.258 176.495 0 319.573-143.078 319.573-319.573 0-77.060-27.275-147.75-72.698-202.943l0.44 0.551z" />
<glyph unicode="&#xeba2;" glyph-name="bars" data-tags="bars" d="M810.667 416h-597.333c-17.673 0-32 14.327-32 32s14.327 32 32 32v0h597.333c17.673 0 32-14.327 32-32s-14.327-32-32-32v0zM810.667 608h-597.333c-17.673 0-32 14.327-32 32s14.327 32 32 32v0h597.333c17.673 0 32-14.327 32-32s-14.327-32-32-32v0zM810.667 224h-597.333c-17.673 0-32 14.327-32 32s14.327 32 32 32v0h597.333c17.673 0 32-14.327 32-32s-14.327-32-32-32v0z" />
<glyph unicode="&#xeba3;" glyph-name="bell" data-tags="bell" d="M875.947 266.667c-3.84 0-90.027 15.36-90.027 266.667 0 177.493-103.253 288-273.92 288s-273.92-110.507-273.92-288c0-256-89.173-266.667-88.747-266.667-17.673 0-32-14.327-32-32s14.327-32 32-32v0h206.080c14.894-73.941 79.329-128.844 156.587-128.844s141.692 54.904 156.414 127.822l0.172 1.022h206.507c17.673 0 32 14.327 32 32s-14.327 32-32 32v0zM512 138.667c-41.397 0.081-76.611 26.469-89.818 63.333l-0.209 0.667h180.053c-13.416-37.531-48.629-63.919-90.017-64h-0.010zM245.76 266.667c30.72 46.507 56.32 128 56.32 266.667s76.8 224 209.92 224 209.92-81.493 209.92-224 25.6-220.16 56.32-266.667z" />
<glyph unicode="&#xeba4;" glyph-name="bolt" data-tags="bolt" d="M473.173 42.667c-1.539-0.294-3.31-0.462-5.12-0.462s-3.581 0.168-5.297 0.49l0.177-0.028c-14.69 4.536-25.179 17.994-25.179 33.902 0 0.231 0.002 0.462 0.007 0.692l-0.001-0.035v4.693l38.4 270.933h-185.173c-0.009 0-0.019 0-0.030 0-13.081 0-24.443 7.358-30.174 18.162l-0.090 0.185c-3.132 5.253-4.983 11.583-4.983 18.347s1.851 13.094 5.075 18.514l-0.092-0.167 85.333 148.907 174.933 278.187c5.978 9.965 16.723 16.53 29.002 16.53 3.662 0 7.188-0.584 10.49-1.664l-0.238 0.067c14.69-4.536 25.179-17.994 25.179-33.902 0-0.231-0.002-0.462-0.007-0.692l0.001 0.035v-4.693l-38.4-270.933h185.6c0.009 0 0.019 0 0.030 0 13.081 0 24.443-7.358 30.174-18.162l0.090-0.185c3.132-5.253 4.983-11.583 4.983-18.347s-1.851-13.094-5.075-18.514l0.092 0.167-85.333-148.907-174.933-278.187c-6.135-9.076-16.387-14.963-28.015-14.963-0.501 0-1 0.011-1.496 0.033l0.071-0.002zM450.56 94.293v0zM338.347 418.56h170.667c19.611-0.239 35.416-16.193 35.416-35.837 0-0.151-0.001-0.302-0.003-0.452v0.023-4.693l-25.173-176.64 106.667 170.667 61.44 105.813h-170.667c-19.611 0.239-35.416 16.193-35.416 35.837 0 0.151 0.001 0.302 0.003 0.452v-0.023 4.693l25.173 176.64-106.667-170.667zM573.44 802.133v0z" />
<glyph unicode="&#xeba5;" glyph-name="book" data-tags="book" d="M810.667 821.333h-522.667c-0.906 0.028-1.972 0.045-3.041 0.045-56.076 0-101.755-44.518-103.621-100.14l-0.005-0.171v-529.067c2.33-65.325 55.848-117.396 121.527-117.396 1.376 0 2.746 0.023 4.111 0.068l-0.199-0.005h503.893c17.577 0.237 31.763 14.423 32 31.977v682.69c-0.237 17.577-14.423 31.763-31.977 32h-0.023zM778.667 138.667h-471.893c-1.193-0.088-2.585-0.138-3.988-0.138-30.359 0-55.232 23.487-57.441 53.281l-0.011 0.19c2.22 29.985 27.093 53.472 57.452 53.472 1.403 0 2.795-0.050 4.173-0.149l-0.185 0.011h471.893zM778.667 309.333h-471.893c-22.54-0.026-43.709-5.873-62.091-16.12l0.651 0.333v427.52c1.978 20.479 19.1 36.36 39.931 36.36 0.963 0 1.917-0.034 2.863-0.101l-0.127 0.007h490.667zM373.333 586.667h277.333c17.673 0 32 14.327 32 32s-14.327 32-32 32v0h-277.333c-17.673 0-32-14.327-32-32s14.327-32 32-32v0zM373.333 437.333h277.333c17.673 0 32 14.327 32 32s-14.327 32-32 32v0h-277.333c-17.673 0-32-14.327-32-32s14.327-32 32-32v0z" />
<glyph unicode="&#xeba6;" glyph-name="box" data-tags="box" d="M884.48 255.147s0 2.987 0 4.693v376.32c-0.017 5.142-1.277 9.987-3.495 14.253l0.082-0.173c-3.206 6.803-8.558 12.154-15.168 15.278l-0.192 0.082-341.333 152.747c-3.884 1.807-8.432 2.861-13.227 2.861s-9.342-1.054-13.425-2.944l0.198 0.082-341.333-152.747c-10.925-5.586-18.366-16.598-18.772-29.386l-0.001-0.054v-376.32c0.686-12.757 8.025-23.655 18.585-29.347l0.188-0.093 341.333-152.747c3.869-1.889 8.419-2.993 13.227-2.993s9.357 1.104 13.409 3.073l-0.183-0.080 341.333 152.747c9.872 4.598 16.979 13.682 18.748 24.557l0.025 0.189zM201.813 587.093l277.333-124.587v-306.347l-277.333 124.16zM543.147 462.507l277.333 124.587v-306.773l-277.333-124.16zM512 754.347l263.253-118.187-263.253-117.76-263.253 117.76z" />
<glyph unicode="&#xeba7;" glyph-name="briefcase" data-tags="briefcase" d="M810.667 693.333h-160v53.333c-3.13 41.959-37.943 74.816-80.429 74.816-1.725 0-3.438-0.054-5.136-0.161l0.232 0.012h-106.667c-1.466 0.095-3.179 0.149-4.904 0.149-42.487 0-77.299-32.857-80.413-74.548l-0.016-0.268v-53.333h-160c-41.14-0.241-74.426-33.526-74.667-74.644v-426.69c0.241-41.14 33.526-74.426 74.644-74.667h597.356c41.14 0.241 74.426 33.526 74.667 74.644v426.69c-0.241 41.14-33.526 74.426-74.644 74.667h-0.023zM437.333 746.667c0 3.413 8.107 10.667 21.333 10.667h106.667c13.227 0 21.333-7.253 21.333-10.667v-53.333h-149.333zM213.333 629.333h597.333c5.891 0 10.667-4.776 10.667-10.667v0-138.667h-618.667v138.667c0 5.891 4.776 10.667 10.667 10.667v0zM373.333 416h277.333v-64h-277.333zM810.667 181.333h-597.333c-5.891 0-10.667 4.776-10.667 10.667v0 224h106.667v-96c0.237-17.577 14.423-31.763 31.977-32h341.356c17.577 0.237 31.763 14.423 32 31.977v96.023h106.667v-224c0-5.891-4.776-10.667-10.667-10.667v0z" />
<glyph unicode="&#xeba8;" glyph-name="building" data-tags="building" d="M405.333 704h42.667c11.782 0 21.333-9.551 21.333-21.333v-42.667c0-11.782-9.551-21.333-21.333-21.333h-42.667c-11.782 0-21.333 9.551-21.333 21.333v42.667c0 11.782 9.551 21.333 21.333 21.333zM576 704h42.667c11.782 0 21.333-9.551 21.333-21.333v-42.667c0-11.782-9.551-21.333-21.333-21.333h-42.667c-11.782 0-21.333 9.551-21.333 21.333v42.667c0 11.782 9.551 21.333 21.333 21.333zM405.333 554.667h42.667c11.782 0 21.333-9.551 21.333-21.333v-42.667c0-11.782-9.551-21.333-21.333-21.333h-42.667c-11.782 0-21.333 9.551-21.333 21.333v42.667c0 11.782 9.551 21.333 21.333 21.333zM576 554.667h42.667c11.782 0 21.333-9.551 21.333-21.333v-42.667c0-11.782-9.551-21.333-21.333-21.333h-42.667c-11.782 0-21.333 9.551-21.333 21.333v42.667c0 11.782 9.551 21.333 21.333 21.333zM405.333 405.333h42.667c11.782 0 21.333-9.551 21.333-21.333v-42.667c0-11.782-9.551-21.333-21.333-21.333h-42.667c-11.782 0-21.333 9.551-21.333 21.333v42.667c0 11.782 9.551 21.333 21.333 21.333zM576 405.333h42.667c11.782 0 21.333-9.551 21.333-21.333v-42.667c0-11.782-9.551-21.333-21.333-21.333h-42.667c-11.782 0-21.333 9.551-21.333 21.333v42.667c0 11.782 9.551 21.333 21.333 21.333zM778.667 138.667h-21.333v650.667c-0.237 17.577-14.423 31.763-31.977 32h-426.69c-17.577-0.237-31.763-14.423-32-31.977v-650.69h-21.333c-17.673 0-32-14.327-32-32s14.327-32 32-32v0h533.333c17.673 0 32 14.327 32 32s-14.327 32-32 32v0zM693.333 138.667h-224v96c0 11.782-9.551 21.333-21.333 21.333v0h-42.667c-11.782 0-21.333-9.551-21.333-21.333v0-96h-53.333v618.667h362.667z" />
<glyph unicode="&#xeba9;" glyph-name="calendar" data-tags="calendar" d="M725.333 778.667h-53.333v53.333c0 17.673-14.327 32-32 32s-32-14.327-32-32v0-53.333h-192v53.333c0 17.673-14.327 32-32 32s-32-14.327-32-32v0-53.333h-53.333c-64.801 0-117.333-52.532-117.333-117.333v0-469.333c0-64.801 52.532-117.333 117.333-117.333v0h426.667c64.801 0 117.333 52.532 117.333 117.333v0 469.333c0 64.801-52.532 117.333-117.333 117.333v0zM298.667 714.667h53.333v-53.333c0-17.673 14.327-32 32-32s32 14.327 32 32v0 53.333h192v-53.333c0-17.673 14.327-32 32-32s32 14.327 32 32v0 53.333h53.333c29.455 0 53.333-23.878 53.333-53.333v0-117.333h-533.333v117.333c0 29.455 23.878 53.333 53.333 53.333v0zM725.333 138.667h-426.667c-29.455 0-53.333 23.878-53.333 53.333v0 288h533.333v-288c0-29.455-23.878-53.333-53.333-53.333v0z" />
<glyph unicode="&#xebaa;" glyph-name="calendar-minus" data-tags="calendar-minus" d="M725.333 757.333h-53.333v53.333c0 17.673-14.327 32-32 32s-32-14.327-32-32v0-53.333h-192v53.333c0 17.673-14.327 32-32 32s-32-14.327-32-32v0-53.333h-53.333c-64.801 0-117.333-52.532-117.333-117.333v0-469.333c0-64.801 52.532-117.333 117.333-117.333v0h426.667c64.801 0 117.333 52.532 117.333 117.333v0 469.333c0 64.801-52.532 117.333-117.333 117.333v0zM298.667 693.333h53.333v-53.333c0-17.673 14.327-32 32-32s32 14.327 32 32v0 53.333h192v-53.333c0-17.673 14.327-32 32-32s32 14.327 32 32v0 53.333h53.333c29.455 0 53.333-23.878 53.333-53.333v0-117.333h-533.333v117.333c0 29.455 23.878 53.333 53.333 53.333v0zM725.333 117.333h-426.667c-29.455 0-53.333 23.878-53.333 53.333v0 288h533.333v-288c0-29.455-23.878-53.333-53.333-53.333v0zM597.333 307.2h-170.667c-17.673 0-32-14.327-32-32s14.327-32 32-32v0h170.667c17.673 0 32 14.327 32 32s-14.327 32-32 32v0z" />
<glyph unicode="&#xebab;" glyph-name="calendar-plus" data-tags="calendar-plus" d="M725.333 757.333h-53.333v53.333c0 17.673-14.327 32-32 32s-32-14.327-32-32v0-53.333h-192v53.333c0 17.673-14.327 32-32 32s-32-14.327-32-32v0-53.333h-53.333c-64.801 0-117.333-52.532-117.333-117.333v0-469.333c0-64.801 52.532-117.333 117.333-117.333v0h426.667c64.801 0 117.333 52.532 117.333 117.333v0 469.333c0 64.801-52.532 117.333-117.333 117.333v0zM298.667 693.333h53.333v-53.333c0-17.673 14.327-32 32-32s32 14.327 32 32v0 53.333h192v-53.333c0-17.673 14.327-32 32-32s32 14.327 32 32v0 53.333h53.333c29.455 0 53.333-23.878 53.333-53.333v0-117.333h-533.333v117.333c0 29.455 23.878 53.333 53.333 53.333v0zM725.333 117.333h-426.667c-29.455 0-53.333 23.878-53.333 53.333v0 288h533.333v-288c0-29.455-23.878-53.333-53.333-53.333v0zM597.333 309.333h-53.333v53.333c0 17.673-14.327 32-32 32s-32-14.327-32-32v0-53.333h-53.333c-17.673 0-32-14.327-32-32s14.327-32 32-32v0h53.333v-53.333c0-17.673 14.327-32 32-32s32 14.327 32 32v0 53.333h53.333c17.673 0 32 14.327 32 32s-14.327 32-32 32v0z" />
<glyph unicode="&#xebac;" glyph-name="calendar-times" data-tags="calendar-times" d="M725.333 757.333h-53.333v53.333c0 17.673-14.327 32-32 32s-32-14.327-32-32v0-53.333h-192v53.333c0 17.673-14.327 32-32 32s-32-14.327-32-32v0-53.333h-53.333c-64.801 0-117.333-52.532-117.333-117.333v0-469.333c0-64.801 52.532-117.333 117.333-117.333v0h426.667c64.801 0 117.333 52.532 117.333 117.333v0 469.333c0 64.801-52.532 117.333-117.333 117.333v0zM298.667 693.333h53.333v-53.333c0-17.673 14.327-32 32-32s32 14.327 32 32v0 53.333h192v-53.333c0-17.673 14.327-32 32-32s32 14.327 32 32v0 53.333h53.333c29.455 0 53.333-23.878 53.333-53.333v0-117.333h-533.333v117.333c0 29.455 23.878 53.333 53.333 53.333v0zM725.333 117.333h-426.667c-29.455 0-53.333 23.878-53.333 53.333v0 288h533.333v-288c0-29.455-23.878-53.333-53.333-53.333v0zM594.773 360.107c-5.741 5.887-13.751 9.539-22.613 9.539s-16.872-3.652-22.607-9.532l-0.006-0.007-37.547-37.547-37.547 37.547c-5.699 5.321-13.376 8.588-21.815 8.588-17.673 0-32-14.327-32-32 0-8.44 3.267-16.116 8.606-21.834l-0.017 0.019 37.547-37.547-37.547-37.547c-5.887-5.741-9.539-13.751-9.539-22.613s3.652-16.872 9.532-22.607l0.007-0.006c5.528-5.793 13.308-9.394 21.93-9.394 0.24 0 0.48 0.003 0.719 0.008l-0.036-0.001c0.044 0 0.097 0 0.149 0 8.788 0 16.737 3.59 22.461 9.384l37.55 37.55 37.547-37.547c5.727-5.797 13.676-9.387 22.464-9.387 0.052 0 0.105 0 0.157 0h-0.008c0.203-0.005 0.443-0.008 0.683-0.008 8.622 0 16.402 3.602 21.919 9.383l0.011 0.012c5.887 5.741 9.539 13.751 9.539 22.613s-3.652 16.872-9.532 22.607l-0.007 0.006-37.547 37.547 37.547 37.547c5.887 5.741 9.539 13.751 9.539 22.613s-3.652 16.872-9.532 22.607l-0.007 0.006z" />
<glyph unicode="&#xebad;" glyph-name="camera" data-tags="camera" d="M768 138.667h-512c-64.801 0-117.333 52.532-117.333 117.333v0 256c0 64.801 52.532 117.333 117.333 117.333v0h25.6l50.347 74.667c21.446 31.575 57.185 52.047 97.706 52.053h164.694c40.522-0.006 76.261-20.479 97.443-51.643l0.263-0.41 50.347-74.667h25.6c64.801 0 117.333-52.532 117.333-117.333v0-256c0-64.801-52.532-117.333-117.333-117.333v0zM256 565.333c-29.455 0-53.333-23.878-53.333-53.333v0-256c0-29.455 23.878-53.333 53.333-53.333v0h512c29.455 0 53.333 23.878 53.333 53.333v0 256c0 29.455-23.878 53.333-53.333 53.333v0h-42.667c-10.963 0.021-20.631 5.552-26.382 13.97l-0.071 0.11-58.88 90.027c-9.307 14.057-24.846 23.341-42.585 23.891l-0.081 0.002h-167.68c-17.821-0.553-33.36-9.836-42.544-23.697l-0.122-0.196-61.867-90.027c-5.823-8.528-15.49-14.059-26.45-14.080h-0.003zM512 266.667c-76.583 0-138.667 62.083-138.667 138.667s62.083 138.667 138.667 138.667c76.583 0 138.667-62.083 138.667-138.667v0c-0.242-76.486-62.181-138.425-138.643-138.667h-0.023zM512 480c-41.237 0-74.667-33.429-74.667-74.667s33.429-74.667 74.667-74.667c41.237 0 74.667 33.429 74.667 74.667v0c-0.241 41.14-33.526 74.426-74.644 74.667h-0.023z" />
<glyph unicode="&#xebae;" glyph-name="car" data-tags="car" d="M843.947 557.227l-78.507 213.333c-10.189 29.531-37.596 50.429-69.932 50.773h-366.974c-31.983-0.074-59.236-20.245-69.805-48.551l-0.169-0.516-78.507-213.333c-25.1-12.214-42.195-37.336-42.666-66.498l-0.001-0.062v-192c-0.009-0.431-0.014-0.939-0.014-1.449 0-25.685 13.119-48.306 33.022-61.528l0.272-0.17s0-2.56 0-2.56v-85.333c0-23.564 19.103-42.667 42.667-42.667v0h42.667c23.564 0 42.667 19.103 42.667 42.667v0 74.667h426.667v-74.667c0-23.564 19.103-42.667 42.667-42.667v0h42.667c23.564 0 42.667 19.103 42.667 42.667v0 85.333s0 0 0 2.56c19.68 13.459 32.427 35.801 32.427 61.12 0 0.113 0 0.225-0.001 0.338v-0.017 192c-0.303 29.054-17.059 54.125-41.382 66.363l-0.431 0.197zM821.333 298.667c0-5.891-4.776-10.667-10.667-10.667v0h-597.333c-5.891 0-10.667 4.776-10.667 10.667v0 192c0 5.891 4.776 10.667 10.667 10.667v0h597.333c5.891 0 10.667-4.776 10.667-10.667v0zM318.72 750.507c1.568 3.986 5.359 6.767 9.806 6.827h366.94c4.455-0.060 8.245-2.841 9.788-6.754l0.025-0.072 59.733-163.84h-506.027zM405.333 394.667c0-35.346-28.654-64-64-64s-64 28.654-64 64c0 35.346 28.654 64 64 64s64-28.654 64-64zM746.667 394.667c0-35.346-28.654-64-64-64s-64 28.654-64 64c0 35.346 28.654 64 64 64s64-28.654 64-64z" />
<glyph unicode="&#xebaf;" glyph-name="caret-down" data-tags="caret-down" d="M512 245.333c-0.063 0-0.139-0.001-0.214-0.001-10.369 0-19.571 4.998-25.327 12.717l-0.060 0.083-256 341.333c-4.019 5.291-6.438 11.988-6.438 19.251 0 5.274 1.276 10.249 3.535 14.635l-0.084-0.179c5.488 10.417 16.211 17.416 28.576 17.493h512.011c12.376-0.078 23.099-7.076 28.502-17.316l0.085-0.177c2.176-4.207 3.451-9.182 3.451-14.456 0-7.262-2.419-13.96-6.496-19.33l0.058 0.079-256-341.333c-5.816-7.802-15.017-12.801-25.386-12.801-0.075 0-0.15 0-0.225 0.001h0.012zM320 586.667l192-256 192 256z" />
<glyph unicode="&#xebb0;" glyph-name="caret-left" data-tags="caret-left" d="M682.667 160c-0.042 0-0.092 0-0.142 0-7.194 0-13.825 2.406-19.134 6.457l0.077-0.056-341.333 256c-7.807 5.9-12.8 15.167-12.8 25.6s4.993 19.7 12.72 25.542l0.080 0.058 341.333 256c5.291 4.019 11.988 6.438 19.251 6.438 5.274 0 10.249-1.276 14.635-3.535l-0.179 0.084c10.417-5.488 17.416-16.211 17.493-28.576v-512.011c-0.078-12.376-7.076-23.099-17.316-28.502l-0.177-0.085c-4.245-2.049-9.216-3.295-14.466-3.413l-0.040-0.001zM394.667 448l256-192v384z" />
<glyph unicode="&#xebb1;" glyph-name="caret-right" data-tags="caret-right" d="M341.333 160c-5.143 0.067-9.978 1.32-14.264 3.498l0.184-0.085c-10.655 5.306-17.86 16.098-17.92 28.579v512.008c0.060 12.489 7.265 23.28 17.735 28.503l0.185 0.084c4.146 2.141 9.049 3.396 14.245 3.396 7.183 0 13.807-2.399 19.112-6.439l-0.077 0.056 341.333-256c7.807-5.9 12.8-15.167 12.8-25.6s-4.993-19.7-12.72-25.542l-0.080-0.058-341.333-256c-5.232-3.995-11.864-6.4-19.058-6.4-0.050 0-0.1 0-0.15 0h0.008zM373.333 640v-384l256 192z" />
<glyph unicode="&#xebb2;" glyph-name="caret-up" data-tags="caret-up" d="M768 245.333h-512c-12.376 0.078-23.099 7.076-28.502 17.316l-0.085 0.177c-2.176 4.207-3.451 9.182-3.451 14.456 0 7.262 2.419 13.96 6.496 19.33l-0.058-0.079 256 341.333c6.071 7.504 15.28 12.263 25.6 12.263s19.529-4.758 25.552-12.201l0.048-0.062 256-341.333c4.019-5.291 6.438-11.988 6.438-19.251 0-5.274-1.276-10.249-3.535-14.635l0.084 0.179c-5.488-10.417-16.211-17.416-28.576-17.493h-0.011zM320 309.333h384l-192 256z" />
<glyph unicode="&#xebb3;" glyph-name="chart-bar" data-tags="chart-bar" d="M192 96c-17.577 0.237-31.763 14.423-32 31.977v640.023c0 17.673 14.327 32 32 32s32-14.327 32-32v0-640c-0.237-17.577-14.423-31.763-31.977-32h-0.023zM832 96h-640c-17.673 0-32 14.327-32 32s14.327 32 32 32v0h640c17.673 0 32-14.327 32-32s-14.327-32-32-32v0zM341.333 245.333c-17.577 0.237-31.763 14.423-32 31.977v170.69c0 17.673 14.327 32 32 32s32-14.327 32-32v0-170.667c-0.237-17.577-14.423-31.763-31.977-32h-0.023zM490.667 245.333c-17.577 0.237-31.763 14.423-32 31.977v341.356c0 17.673 14.327 32 32 32s32-14.327 32-32v0-341.333c-0.237-17.577-14.423-31.763-31.977-32h-0.023zM640 245.333c-17.577 0.237-31.763 14.423-32 31.977v170.69c0 17.673 14.327 32 32 32s32-14.327 32-32v0-170.667c-0.237-17.577-14.423-31.763-31.977-32h-0.023zM789.333 245.333c-17.577 0.237-31.763 14.423-32 31.977v341.356c0 17.673 14.327 32 32 32s32-14.327 32-32v0-341.333c-0.237-17.577-14.423-31.763-31.977-32h-0.023z" />
<glyph unicode="&#xebb4;" glyph-name="chart-line" data-tags="chart-line" d="M192 96c-17.577 0.237-31.763 14.423-32 31.977v640.023c0 17.673 14.327 32 32 32s32-14.327 32-32v0-640c-0.237-17.577-14.423-31.763-31.977-32h-0.023zM832 96h-640c-17.673 0-32 14.327-32 32s14.327 32 32 32v0h640c17.673 0 32-14.327 32-32s-14.327-32-32-32v0zM597.333 330.667c-0.044 0-0.097 0-0.149 0-8.788 0-16.737 3.59-22.461 9.384l-105.39 105.39-105.387-105.387c-5.699-5.321-13.376-8.588-21.815-8.588-17.673 0-32 14.327-32 32 0 8.44 3.267 16.116 8.606 21.834l-0.017-0.019 128 128c5.789 5.782 13.784 9.359 22.613 9.359s16.824-3.576 22.614-9.359v0l105.387-105.387 148.053 148.053c5.699 5.321 13.376 8.588 21.815 8.588 17.673 0 32-14.327 32-32 0-8.44-3.267-16.116-8.606-21.834l0.017 0.019-170.667-170.667c-5.727-5.797-13.676-9.387-22.464-9.387-0.052 0-0.105 0-0.157 0h0.008zM789.333 369.493c-17.577 0.237-31.763 14.423-32 31.977v121.196h-117.333c-17.673 0-32 14.327-32 32s14.327 32 32 32v0h149.333c17.577-0.237 31.763-14.423 32-31.977v-153.196c-0.237-17.577-14.423-31.763-31.977-32h-0.023z" />
<glyph unicode="&#xebb5;" glyph-name="chart-pie" data-tags="chart-pie" d="M565.333 755.627v12.373c-0.237 17.577-14.423 31.763-31.977 32h-0.023c-206.428-1.233-373.294-168.86-373.294-375.46 0-67.915 18.031-131.618 49.568-186.583l-0.968 1.83c5.663-9.513 15.893-15.787 27.589-15.787 0.051 0 0.102 0 0.152 0h-0.008c5.817 0.012 11.261 1.595 15.934 4.347l-0.148-0.080 12.373 6.4c60.63-84.207 158.387-138.393 268.799-138.393 182.387 0 330.24 147.853 330.24 330.24 0 171.117-130.147 311.837-296.855 328.573l-1.384 0.112zM501.333 734.293v-289.28l-251.307-144.213c-16.5 36.703-26.112 79.558-26.112 124.659 0 159.854 120.754 291.504 276.020 308.709l1.399 0.126zM533.333 160c-86.977 0.251-164.159 41.97-212.845 106.418l-0.489 0.675 229.12 131.84c9.735 5.394 16.216 15.608 16.216 27.335 0 0.14-0.001 0.28-0.003 0.42v-0.021 264.533c132.097-17.271 233.042-129.116 233.042-264.538 0-146.705-118.466-265.74-264.954-266.661h-0.088z" />
<glyph unicode="&#xebb6;" glyph-name="check" data-tags="check" d="M384 181.333c-9.016 0.313-17.029 4.36-22.584 10.633l-0.029 0.033-213.333 213.333c-8.836 5.792-14.591 15.649-14.591 26.85 0 17.673 14.327 32 32 32 11.856 0 22.207-6.448 27.736-16.029l0.082-0.155 190.72-189.44 446.72 445.44c4.914 3.228 10.937 5.15 17.409 5.15 17.673 0 32-14.327 32-32 0-5.817-1.552-11.271-4.264-15.971l0.082 0.155-469.333-469.333c-5.584-6.307-13.597-10.354-22.56-10.665l-0.054-0.001z" />
<glyph unicode="&#xebb7;" glyph-name="check-circle" data-tags="check-circle" d="M448 309.333c-8.538 0.672-16.036 4.646-21.303 10.632l-0.030 0.035-128 128c-1.971 4.034-3.124 8.778-3.124 13.791 0 17.673 14.327 32 32 32 5.013 0 9.757-1.153 13.981-3.208l-0.19 0.083 105.387-105.387 363.947 361.387c4.034 1.971 8.778 3.124 13.791 3.124 17.673 0 32-14.327 32-32 0-5.013-1.153-9.757-3.208-13.981l0.083 0.19-384-384c-5.297-6.020-12.795-9.995-21.224-10.66l-0.11-0.007zM512 64c-143.902 0.238-269.215 79.594-334.789 196.883l-0.998 1.944c-24.003 41.96-40.279 91.331-45.529 143.95l-0.125 1.543c-1.315 11.927-2.064 25.758-2.064 39.764 0 143.941 79.198 269.385 196.396 335.132l1.935 0.997c41.96 24.003 91.331 40.279 143.95 45.529l1.543 0.125c12.129 1.381 26.188 2.168 40.43 2.168 39.624 0 77.825-6.096 113.714-17.403l-2.678 0.728c14.775-3.030 25.73-15.925 25.73-31.38 0-17.673-14.327-32-32-32-4.354 0-8.505 0.87-12.289 2.445l0.212-0.078c-28.016 8.737-60.229 13.77-93.617 13.77-12.112 0-24.069-0.662-35.837-1.953l1.453 0.129c-45.106-4.735-86.183-18.241-122.767-38.796l1.594 0.823c-36.874-20.587-68.011-46.825-93.411-77.931l-0.456-0.575c-44.716-54.181-71.835-124.328-71.835-200.808 0-12.078 0.676-23.999 1.993-35.725l-0.131 1.44c4.735-45.106 18.241-86.183 38.796-122.767l-0.823 1.594c20.587-36.874 46.825-68.011 77.931-93.411l0.575-0.456c54.181-44.716 124.328-71.835 200.808-71.835 12.078 0 23.999 0.676 35.725 1.993l-1.44-0.131c45.106 4.735 86.183 18.241 122.767 38.796l-1.594-0.823c36.874 20.587 68.011 46.825 93.411 77.931l0.456 0.575c44.716 54.181 71.835 124.328 71.835 200.808 0 12.078-0.676 23.999-1.993 35.725l0.131-1.44c-0.097 0.959-0.153 2.073-0.153 3.2 0 18.582 15.064 33.646 33.646 33.646 17.455 0 31.806-13.292 33.482-30.307l0.011-0.139c1.3-11.86 2.041-25.614 2.041-39.541 0-144.103-79.377-269.668-196.792-335.354l-1.942-0.998c-42.47-24.998-92.548-42.020-146.021-47.65l-1.606-0.137c-13.227 0-26.88 0-39.68 0z" />
<glyph unicode="&#xebb8;" glyph-name="check-square" data-tags="check-square" d="M768 74.667h-512c-64.801 0-117.333 52.532-117.333 117.333v0 512c0 64.801 52.532 117.333 117.333 117.333v0h378.027c17.673 0 32-14.327 32-32s-14.327-32-32-32v0h-378.027c-29.455 0-53.333-23.878-53.333-53.333v0-512c0-29.455 23.878-53.333 53.333-53.333v0h512c29.455 0 53.333 23.878 53.333 53.333v0 328.96c0 17.673 14.327 32 32 32s32-14.327 32-32v0-328.96c0-64.801-52.532-117.333-117.333-117.333v0zM448 309.333c-8.538 0.672-16.036 4.646-21.303 10.632l-0.030 0.035-128 128c-1.971 4.034-3.124 8.778-3.124 13.791 0 17.673 14.327 32 32 32 5.013 0 9.757-1.153 13.981-3.208l-0.19 0.083 105.387-105.387 363.947 361.387c4.034 1.971 8.778 3.124 13.791 3.124 17.673 0 32-14.327 32-32 0-5.013-1.153-9.757-3.208-13.981l0.083 0.19-384-384c-5.297-6.020-12.795-9.995-21.224-10.66l-0.11-0.007z" />
<glyph unicode="&#xebb9;" glyph-name="chevron-circle-down" data-tags="chevron-circle-down" d="M512 64c-212.077 0-384 171.923-384 384s171.923 384 384 384c212.077 0 384-171.923 384-384v0c0-212.077-171.923-384-384-384v0zM512 768c-176.731 0-320-143.269-320-320s143.269-320 320-320c176.731 0 320 143.269 320 320v0c0 176.731-143.269 320-320 320v0zM512 330.667c-0.044 0-0.097 0-0.149 0-8.788 0-16.737 3.59-22.461 9.384l-170.67 170.67c-5.321 5.699-8.588 13.376-8.588 21.815 0 17.673 14.327 32 32 32 8.44 0 16.116-3.267 21.834-8.606l-0.019 0.017 148.053-148.053 148.053 148.053c5.699 5.321 13.376 8.588 21.815 8.588 17.673 0 32-14.327 32-32 0-8.44-3.267-16.116-8.606-21.834l0.017 0.019-170.667-170.667c-5.727-5.797-13.676-9.387-22.464-9.387-0.052 0-0.105 0-0.157 0h0.008z" />
<glyph unicode="&#xebba;" glyph-name="chevron-circle-left" data-tags="chevron-circle-left" d="M512 64c-212.077 0-384 171.923-384 384s171.923 384 384 384c212.077 0 384-171.923 384-384v0c0-212.077-171.923-384-384-384v0zM512 768c-176.731 0-320-143.269-320-320s143.269-320 320-320c176.731 0 320 143.269 320 320v0c0 176.731-143.269 320-320 320v0zM597.333 245.333c-0.044 0-0.097 0-0.149 0-8.788 0-16.737 3.59-22.461 9.384l-170.67 170.67c-5.782 5.789-9.359 13.784-9.359 22.613s3.576 16.824 9.359 22.614v0l170.667 170.667c5.699 5.321 13.376 8.588 21.815 8.588 17.673 0 32-14.327 32-32 0-8.44-3.267-16.116-8.606-21.834l0.017 0.019-148.053-148.053 148.053-148.053c5.782-5.789 9.359-13.784 9.359-22.613s-3.576-16.824-9.359-22.614v0c-5.727-5.797-13.676-9.387-22.464-9.387-0.052 0-0.105 0-0.157 0h0.008z" />
</font>
</defs>
</svg>
